<svg width="477" height="416" viewBox="0 0 477 416" fill="none" xmlns="http://www.w3.org/2000/svg">
<path d="M270.406 -9.0305e-06L311.725 -7.2244e-06L311.725 416L-567 416L-567 374.744L270.406 374.744L270.406 333.488L-567 333.488L-567 292.231L270.406 292.231L270.406 250.975L-567 250.975L-567 209.719L270.406 209.719L270.406 168.463L-567 168.463L-567 127.207L270.406 127.207L270.406 -9.0305e-06ZM353.044 -5.4183e-06L394.362 -3.6122e-06L394.362 416L353.044 416L353.044 -5.4183e-06ZM435.681 -1.8061e-06L477 0L477 416L435.681 416L435.681 -1.8061e-06Z" fill="#3FB755"/>
</svg>
