<svg width="95" height="54" viewBox="0 0 95 54" fill="none" xmlns="http://www.w3.org/2000/svg">
<path d="M3.04688 40.1368C1.01562 36.1134 0 31.5236 0 26.3673C0 21.2111 1.01562 16.6212 3.04688 12.5978C5.07812 8.57434 7.87109 5.46887 11.4258 3.28137C14.9805 1.09387 18.9844 0.00012207 23.4375 0.00012207C27.8906 0.00012207 31.8945 1.09387 35.4492 3.28137C39.0039 5.46887 41.7969 8.57434 43.8281 12.5978C45.8594 16.6212 46.875 21.2111 46.875 26.3673C46.875 31.5236 45.8594 36.1134 43.8281 40.1368C41.7969 44.1603 39.0039 47.2657 35.4492 49.4532C31.8945 51.6407 27.8906 52.7345 23.4375 52.7345C18.9844 52.7345 14.9805 51.6407 11.4258 49.4532C7.87109 47.2657 5.07812 44.1603 3.04688 40.1368ZM31.2891 16.2892C33.2422 18.6915 34.2188 22.0509 34.2188 26.3673C34.2188 30.6837 33.2422 34.0529 31.2891 36.4747C29.3555 38.8771 26.7383 40.0782 23.4375 40.0782C20.1367 40.0782 17.5098 38.8771 15.5566 36.4747C13.623 34.0529 12.6562 30.6837 12.6562 26.3673C12.6562 22.0509 13.623 18.6915 15.5566 16.2892C17.5098 13.8673 20.1367 12.6564 23.4375 12.6564C26.7383 12.6564 29.3555 13.8673 31.2891 16.2892ZM34.2773 13.3009C37.0508 16.5431 38.4375 20.8986 38.4375 26.3673C38.4375 31.8361 37.0508 36.1915 34.2773 39.4337C31.5234 42.6759 27.9102 44.297 23.4375 44.297C18.9648 44.297 15.3418 42.6759 12.5684 39.4337C9.81445 36.1915 8.4375 31.8361 8.4375 26.3673C8.4375 20.8986 9.81445 16.5431 12.5684 13.3009C15.3418 10.0587 18.9648 8.43762 23.4375 8.43762C27.9102 8.43762 31.5234 10.0587 34.2773 13.3009ZM40.166 14.7365C41.8262 18.0958 42.6562 21.9728 42.6562 26.3673C42.6562 30.7618 41.8262 34.6486 40.166 38.0275C38.5254 41.3868 36.25 43.9747 33.3398 45.7911C30.4297 47.6075 27.1289 48.5157 23.4375 48.5157C19.7461 48.5157 16.4453 47.6075 13.5352 45.7911C10.625 43.9747 8.33984 41.3868 6.67969 38.0275C5.03906 34.6486 4.21875 30.7618 4.21875 26.3673C4.21875 21.9728 5.03906 18.0958 6.67969 14.7365C8.33984 11.3575 10.625 8.75989 13.5352 6.94348C16.4453 5.12708 19.7461 4.21887 23.4375 4.21887C27.1289 4.21887 30.4297 5.12708 33.3398 6.94348C36.25 8.75989 38.5254 11.3575 40.166 14.7365ZM17.0508 17.754C15.5273 19.7462 14.7656 22.6173 14.7656 26.3673C14.7656 30.1173 15.5273 32.9884 17.0508 34.9806C18.5938 36.9728 20.7227 37.9689 23.4375 37.9689C26.1523 37.9689 28.2715 36.9728 29.7949 34.9806C31.3379 32.9884 32.1094 30.1173 32.1094 26.3673C32.1094 22.6173 31.3379 19.7462 29.7949 17.754C28.2715 15.7618 26.1523 14.7657 23.4375 14.7657C20.7227 14.7657 18.5938 15.7618 17.0508 17.754ZM14.0625 14.795C11.7188 17.6075 10.5469 21.465 10.5469 26.3673C10.5469 31.2697 11.7188 35.1368 14.0625 37.9689C16.4258 40.7814 19.5508 42.1876 23.4375 42.1876C27.3242 42.1876 30.4395 40.7814 32.7832 37.9689C35.1465 35.1368 36.3281 31.2697 36.3281 26.3673C36.3281 21.465 35.1465 17.6075 32.7832 14.795C30.4395 11.963 27.3242 10.547 23.4375 10.547C19.5508 10.547 16.4258 11.963 14.0625 14.795ZM11.0742 11.8068C7.91016 15.4591 6.32812 20.3126 6.32812 26.3673C6.32812 32.422 7.91016 37.2755 11.0742 40.9279C14.2578 44.5802 18.3789 46.4064 23.4375 46.4064C28.4961 46.4064 32.6074 44.5802 35.7715 40.9279C38.9551 37.2755 40.5469 32.422 40.5469 26.3673C40.5469 20.3126 38.9551 15.4591 35.7715 11.8068C32.6074 8.15442 28.4961 6.32825 23.4375 6.32825C18.3789 6.32825 14.2578 8.15442 11.0742 11.8068ZM3.7207 16.465C2.64648 19.4923 2.10938 22.7931 2.10938 26.3673C2.10938 29.9415 2.64648 33.2521 3.7207 36.299C4.79492 39.3263 6.26953 41.8849 8.14453 43.9747C10.0391 46.0646 12.2949 47.6954 14.9121 48.8673C17.5488 50.0392 20.3906 50.6251 23.4375 50.6251C26.4844 50.6251 29.3164 50.0392 31.9336 48.8673C34.5703 47.6954 36.8262 46.0646 38.7012 43.9747C40.5957 41.8849 42.0801 39.3263 43.1543 36.299C44.2285 33.2521 44.7656 29.9415 44.7656 26.3673C44.7656 22.7931 44.2285 19.4923 43.1543 16.465C42.0801 13.4181 40.5957 10.8497 38.7012 8.75989C36.8262 6.67004 34.5703 5.03918 31.9336 3.86731C29.3164 2.69543 26.4844 2.1095 23.4375 2.1095C20.3906 2.1095 17.5488 2.69543 14.9121 3.86731C12.2949 5.03918 10.0391 6.67004 8.14453 8.75989C6.26953 10.8497 4.79492 13.4181 3.7207 16.465Z" fill="#414141"/>
<path d="M50.3906 12.6564V10.547H71.6602V50.6251H69.5508V12.6564H67.4414V50.6251H65.332V12.6564H63.2227V50.6251H61.1133V12.6564H59.0039V50.6251H56.8945V12.6564H50.3906ZM50.3906 8.43762V6.32825H71.6602V8.43762H50.3906ZM50.3906 4.21887V2.1095H71.6602V4.21887H50.3906Z" fill="#414141"/>
</svg>
