<svg width="85" height="54" viewBox="0 0 85 54" fill="none" xmlns="http://www.w3.org/2000/svg">
<path d="M3.95117 40.5117C1.91992 36.4883 0.904297 31.8984 0.904297 26.7422C0.904297 21.5859 1.91992 16.9961 3.95117 12.9727C5.98242 8.94922 8.77539 5.84375 12.3301 3.65625C15.8848 1.46875 19.8887 0.375 24.3418 0.375C28.7949 0.375 32.7988 1.46875 36.3535 3.65625C39.9082 5.84375 42.7012 8.94922 44.7324 12.9727C46.7637 16.9961 47.7793 21.5859 47.7793 26.7422C47.7793 31.8984 46.7637 36.4883 44.7324 40.5117C42.7012 44.5352 39.9082 47.6406 36.3535 49.8281C32.7988 52.0156 28.7949 53.1094 24.3418 53.1094C19.8887 53.1094 15.8848 52.0156 12.3301 49.8281C8.77539 47.6406 5.98242 44.5352 3.95117 40.5117ZM32.1934 16.6641C34.1465 19.0664 35.123 22.4258 35.123 26.7422C35.123 31.0586 34.1465 34.4277 32.1934 36.8496C30.2598 39.252 27.6426 40.4531 24.3418 40.4531C21.041 40.4531 18.4141 39.252 16.4609 36.8496C14.5273 34.4277 13.5605 31.0586 13.5605 26.7422C13.5605 22.4258 14.5273 19.0664 16.4609 16.6641C18.4141 14.2422 21.041 13.0312 24.3418 13.0312C27.6426 13.0312 30.2598 14.2422 32.1934 16.6641ZM35.1816 13.6758C37.9551 16.918 39.3418 21.2734 39.3418 26.7422C39.3418 32.2109 37.9551 36.5664 35.1816 39.8086C32.4277 43.0508 28.8145 44.6719 24.3418 44.6719C19.8691 44.6719 16.2461 43.0508 13.4727 39.8086C10.7188 36.5664 9.3418 32.2109 9.3418 26.7422C9.3418 21.2734 10.7188 16.918 13.4727 13.6758C16.2461 10.4336 19.8691 8.8125 24.3418 8.8125C28.8145 8.8125 32.4277 10.4336 35.1816 13.6758ZM41.0703 15.1113C42.7305 18.4707 43.5605 22.3477 43.5605 26.7422C43.5605 31.1367 42.7305 35.0234 41.0703 38.4023C39.4297 41.7617 37.1543 44.3496 34.2441 46.166C31.334 47.9824 28.0332 48.8906 24.3418 48.8906C20.6504 48.8906 17.3496 47.9824 14.4395 46.166C11.5293 44.3496 9.24414 41.7617 7.58398 38.4023C5.94336 35.0234 5.12305 31.1367 5.12305 26.7422C5.12305 22.3477 5.94336 18.4707 7.58398 15.1113C9.24414 11.7324 11.5293 9.13477 14.4395 7.31836C17.3496 5.50195 20.6504 4.59375 24.3418 4.59375C28.0332 4.59375 31.334 5.50195 34.2441 7.31836C37.1543 9.13477 39.4297 11.7324 41.0703 15.1113ZM17.9551 18.1289C16.4316 20.1211 15.6699 22.9922 15.6699 26.7422C15.6699 30.4922 16.4316 33.3633 17.9551 35.3555C19.498 37.3477 21.627 38.3438 24.3418 38.3438C27.0566 38.3438 29.1758 37.3477 30.6992 35.3555C32.2422 33.3633 33.0137 30.4922 33.0137 26.7422C33.0137 22.9922 32.2422 20.1211 30.6992 18.1289C29.1758 16.1367 27.0566 15.1406 24.3418 15.1406C21.627 15.1406 19.498 16.1367 17.9551 18.1289ZM14.9668 15.1699C12.623 17.9824 11.4512 21.8398 11.4512 26.7422C11.4512 31.6445 12.623 35.5117 14.9668 38.3438C17.3301 41.1562 20.4551 42.5625 24.3418 42.5625C28.2285 42.5625 31.3438 41.1562 33.6875 38.3438C36.0508 35.5117 37.2324 31.6445 37.2324 26.7422C37.2324 21.8398 36.0508 17.9824 33.6875 15.1699C31.3438 12.3379 28.2285 10.9219 24.3418 10.9219C20.4551 10.9219 17.3301 12.3379 14.9668 15.1699ZM11.9785 12.1816C8.81445 15.834 7.23242 20.6875 7.23242 26.7422C7.23242 32.7969 8.81445 37.6504 11.9785 41.3027C15.1621 44.9551 19.2832 46.7812 24.3418 46.7812C29.4004 46.7812 33.5117 44.9551 36.6758 41.3027C39.8594 37.6504 41.4512 32.7969 41.4512 26.7422C41.4512 20.6875 39.8594 15.834 36.6758 12.1816C33.5117 8.5293 29.4004 6.70312 24.3418 6.70312C19.2832 6.70312 15.1621 8.5293 11.9785 12.1816ZM4.625 16.8398C3.55078 19.8672 3.01367 23.168 3.01367 26.7422C3.01367 30.3164 3.55078 33.627 4.625 36.6738C5.69922 39.7012 7.17383 42.2598 9.04883 44.3496C10.9434 46.4395 13.1992 48.0703 15.8164 49.2422C18.4531 50.4141 21.2949 51 24.3418 51C27.3887 51 30.2207 50.4141 32.8379 49.2422C35.4746 48.0703 37.7305 46.4395 39.6055 44.3496C41.5 42.2598 42.9844 39.7012 44.0586 36.6738C45.1328 33.627 45.6699 30.3164 45.6699 26.7422C45.6699 23.168 45.1328 19.8672 44.0586 16.8398C42.9844 13.793 41.5 11.2246 39.6055 9.13477C37.7305 7.04492 35.4746 5.41406 32.8379 4.24219C30.2207 3.07031 27.3887 2.48438 24.3418 2.48438C21.2949 2.48438 18.4531 3.07031 15.8164 4.24219C13.1992 5.41406 10.9434 7.04492 9.04883 9.13477C7.17383 11.2246 5.69922 13.793 4.625 16.8398ZM65.3574 40.4238C60.8262 40.4238 56.9102 39.9551 53.6094 39.0176L54.0195 37.0547C56.7148 37.8945 60.4941 38.3145 65.3574 38.3145C68.248 38.3145 69.6934 37.5527 69.6934 36.0293C69.6934 34.8184 68.2969 34.2129 65.5039 34.2129H59.1172V32.1035H65.5332C67.3301 32.1035 68.8242 32.416 70.0156 33.041C71.207 33.666 71.8027 34.6621 71.8027 36.0293C71.8027 37.4941 71.1973 38.5977 69.9863 39.3398C68.7949 40.0625 67.252 40.4238 65.3574 40.4238ZM71.4512 19.623L69.4297 19.1836C69.6055 18.8906 69.6934 18.4023 69.6934 17.7188C69.6934 16 68.248 15.1406 65.3574 15.1406C60.4941 15.1406 56.7148 15.5605 54.0195 16.4004L53.6094 14.4375C56.9102 13.5 60.8262 13.0312 65.3574 13.0312C67.252 13.0312 68.7949 13.4219 69.9863 14.2031C71.1973 14.9844 71.8027 16.1562 71.8027 17.7188C71.8027 18.5586 71.6855 19.1934 71.4512 19.623ZM53.1992 12.4453L52.7891 10.3945C56.4414 9.33984 60.6309 8.8125 65.3574 8.8125C68.4043 8.8125 70.9434 9.61328 72.9746 11.2148C75.0059 12.7969 76.0215 14.9648 76.0215 17.7188C76.0215 18.832 75.8066 19.9355 75.377 21.0293L73.4141 20.2383C73.7461 19.4961 73.9121 18.6562 73.9121 17.7188C73.9121 15.5703 73.1016 13.9004 71.4805 12.709C69.8594 11.5176 67.8184 10.9219 65.3574 10.9219C60.8262 10.9219 56.7734 11.4297 53.1992 12.4453ZM79.0098 23.0215L77.2812 21.9668C77.8477 20.6191 78.1309 19.2031 78.1309 17.7188C78.1309 14.3789 76.9102 11.7129 74.4688 9.7207C72.0273 7.70898 68.9902 6.70312 65.3574 6.70312C60.8848 6.70312 56.5586 7.26953 52.3789 8.40234L51.9395 6.29297C55.9824 5.16016 60.4551 4.59375 65.3574 4.59375C68.0918 4.59375 70.582 5.12109 72.8281 6.17578C75.0742 7.23047 76.8711 8.77344 78.2188 10.8047C79.5664 12.8164 80.2402 15.1211 80.2402 17.7188C80.2402 19.6133 79.8301 21.3809 79.0098 23.0215ZM82.1445 26.0684L80.6211 24.4863C81.7734 22.3965 82.3496 20.1406 82.3496 17.7188C82.3496 14.7305 81.5781 12.0645 80.0352 9.7207C78.5117 7.37695 76.4609 5.58984 73.8828 4.35938C71.3242 3.10937 68.4824 2.48438 65.3574 2.48438C60.5723 2.48438 55.9629 3.07031 51.5293 4.24219L51.0898 2.13281C55.3477 0.960938 60.1035 0.375 65.3574 0.375C67.9746 0.375 70.4453 0.794922 72.7695 1.63477C75.1133 2.47461 77.1445 3.64648 78.8633 5.15039C80.582 6.63477 81.9395 8.4707 82.9355 10.6582C83.9512 12.8262 84.459 15.1797 84.459 17.7188C84.459 20.7852 83.6875 23.5684 82.1445 26.0684ZM65.3574 42.5332C67.8184 42.5332 69.8594 41.9668 71.4805 40.834C73.1016 39.6816 73.9121 38.0801 73.9121 36.0293C73.9121 34.1348 73.1113 32.6602 71.5098 31.6055C69.9277 30.5312 68.0137 29.9941 65.7676 29.9941H59.1172V27.8848H65.7969C68.6289 27.8848 71.041 28.627 73.0332 30.1113C75.0254 31.5762 76.0215 33.5488 76.0215 36.0293C76.0215 38.7051 75.0059 40.8145 72.9746 42.3574C70.9434 43.8809 68.4043 44.6426 65.3574 44.6426C60.6309 44.6426 56.4414 44.1152 52.7891 43.0605L53.1992 41.0098C56.7734 42.0254 60.8262 42.5332 65.3574 42.5332ZM65.3574 46.752C68.9902 46.752 72.0273 45.7852 74.4688 43.8516C76.9102 41.8984 78.1309 39.291 78.1309 36.0293C78.1309 32.9238 76.9297 30.4434 74.5273 28.5879C72.1445 26.7129 69.2734 25.7754 65.9141 25.7754H59.1172V23.666H65.9727C68.5508 23.666 70.9336 24.2129 73.1211 25.3066C75.3086 26.3809 77.0371 27.875 78.3066 29.7891C79.5957 31.6836 80.2402 33.7637 80.2402 36.0293C80.2402 38.5684 79.5664 40.8242 78.2188 42.7969C76.8711 44.7695 75.0742 46.2734 72.8281 47.3086C70.582 48.3438 68.0918 48.8613 65.3574 48.8613C60.4551 48.8613 55.9824 48.2949 51.9395 47.1621L52.3789 45.0527C56.5586 46.1855 60.8848 46.752 65.3574 46.752ZM65.3574 50.9707C68.4824 50.9707 71.3242 50.3652 73.8828 49.1543C76.4609 47.9238 78.5117 46.166 80.0352 43.8809C81.5781 41.5762 82.3496 38.959 82.3496 36.0293C82.3496 33.8809 81.8809 31.8887 80.9434 30.0527C80.0059 28.1973 78.7656 26.6641 77.2227 25.4531C75.6992 24.2227 73.9609 23.2656 72.0078 22.582C70.0547 21.8984 68.043 21.5566 65.9727 21.5566H59.1172V19.4473H66.0898C68.4922 19.4473 70.7969 19.8477 73.0039 20.6484C75.2305 21.4492 77.1836 22.5527 78.8633 23.959C80.5625 25.3652 81.9199 27.123 82.9355 29.2324C83.9512 31.3223 84.459 33.5879 84.459 36.0293C84.459 39.3496 83.5996 42.3184 81.8809 44.9355C80.1621 47.5527 77.8477 49.5645 74.9375 50.9707C72.0469 52.377 68.8535 53.0801 65.3574 53.0801C60.1035 53.0801 55.3477 52.4941 51.0898 51.3223L51.5293 49.2129C55.9629 50.3848 60.5723 50.9707 65.3574 50.9707Z" fill="#414141"/>
</svg>
