<svg width="95" height="54" viewBox="0 0 95 54" fill="none" xmlns="http://www.w3.org/2000/svg">
<path d="M3.95117 40.5117C1.91992 36.4883 0.904297 31.8984 0.904297 26.7422C0.904297 21.5859 1.91992 16.9961 3.95117 12.9727C5.98242 8.94922 8.77539 5.84375 12.3301 3.65625C15.8848 1.46875 19.8887 0.375 24.3418 0.375C28.7949 0.375 32.7988 1.46875 36.3535 3.65625C39.9082 5.84375 42.7012 8.94922 44.7324 12.9727C46.7637 16.9961 47.7793 21.5859 47.7793 26.7422C47.7793 31.8984 46.7637 36.4883 44.7324 40.5117C42.7012 44.5352 39.9082 47.6406 36.3535 49.8281C32.7988 52.0156 28.7949 53.1094 24.3418 53.1094C19.8887 53.1094 15.8848 52.0156 12.3301 49.8281C8.77539 47.6406 5.98242 44.5352 3.95117 40.5117ZM32.1934 16.6641C34.1465 19.0664 35.123 22.4258 35.123 26.7422C35.123 31.0586 34.1465 34.4277 32.1934 36.8496C30.2598 39.252 27.6426 40.4531 24.3418 40.4531C21.041 40.4531 18.4141 39.252 16.4609 36.8496C14.5273 34.4277 13.5605 31.0586 13.5605 26.7422C13.5605 22.4258 14.5273 19.0664 16.4609 16.6641C18.4141 14.2422 21.041 13.0312 24.3418 13.0312C27.6426 13.0312 30.2598 14.2422 32.1934 16.6641ZM35.1816 13.6758C37.9551 16.918 39.3418 21.2734 39.3418 26.7422C39.3418 32.2109 37.9551 36.5664 35.1816 39.8086C32.4277 43.0508 28.8145 44.6719 24.3418 44.6719C19.8691 44.6719 16.2461 43.0508 13.4727 39.8086C10.7188 36.5664 9.3418 32.2109 9.3418 26.7422C9.3418 21.2734 10.7188 16.918 13.4727 13.6758C16.2461 10.4336 19.8691 8.8125 24.3418 8.8125C28.8145 8.8125 32.4277 10.4336 35.1816 13.6758ZM41.0703 15.1113C42.7305 18.4707 43.5605 22.3477 43.5605 26.7422C43.5605 31.1367 42.7305 35.0234 41.0703 38.4023C39.4297 41.7617 37.1543 44.3496 34.2441 46.166C31.334 47.9824 28.0332 48.8906 24.3418 48.8906C20.6504 48.8906 17.3496 47.9824 14.4395 46.166C11.5293 44.3496 9.24414 41.7617 7.58398 38.4023C5.94336 35.0234 5.12305 31.1367 5.12305 26.7422C5.12305 22.3477 5.94336 18.4707 7.58398 15.1113C9.24414 11.7324 11.5293 9.13477 14.4395 7.31836C17.3496 5.50195 20.6504 4.59375 24.3418 4.59375C28.0332 4.59375 31.334 5.50195 34.2441 7.31836C37.1543 9.13477 39.4297 11.7324 41.0703 15.1113ZM17.9551 18.1289C16.4316 20.1211 15.6699 22.9922 15.6699 26.7422C15.6699 30.4922 16.4316 33.3633 17.9551 35.3555C19.498 37.3477 21.627 38.3438 24.3418 38.3438C27.0566 38.3438 29.1758 37.3477 30.6992 35.3555C32.2422 33.3633 33.0137 30.4922 33.0137 26.7422C33.0137 22.9922 32.2422 20.1211 30.6992 18.1289C29.1758 16.1367 27.0566 15.1406 24.3418 15.1406C21.627 15.1406 19.498 16.1367 17.9551 18.1289ZM14.9668 15.1699C12.623 17.9824 11.4512 21.8398 11.4512 26.7422C11.4512 31.6445 12.623 35.5117 14.9668 38.3438C17.3301 41.1562 20.4551 42.5625 24.3418 42.5625C28.2285 42.5625 31.3438 41.1562 33.6875 38.3438C36.0508 35.5117 37.2324 31.6445 37.2324 26.7422C37.2324 21.8398 36.0508 17.9824 33.6875 15.1699C31.3438 12.3379 28.2285 10.9219 24.3418 10.9219C20.4551 10.9219 17.3301 12.3379 14.9668 15.1699ZM11.9785 12.1816C8.81445 15.834 7.23242 20.6875 7.23242 26.7422C7.23242 32.7969 8.81445 37.6504 11.9785 41.3027C15.1621 44.9551 19.2832 46.7812 24.3418 46.7812C29.4004 46.7812 33.5117 44.9551 36.6758 41.3027C39.8594 37.6504 41.4512 32.7969 41.4512 26.7422C41.4512 20.6875 39.8594 15.834 36.6758 12.1816C33.5117 8.5293 29.4004 6.70312 24.3418 6.70312C19.2832 6.70312 15.1621 8.5293 11.9785 12.1816ZM4.625 16.8398C3.55078 19.8672 3.01367 23.168 3.01367 26.7422C3.01367 30.3164 3.55078 33.627 4.625 36.6738C5.69922 39.7012 7.17383 42.2598 9.04883 44.3496C10.9434 46.4395 13.1992 48.0703 15.8164 49.2422C18.4531 50.4141 21.2949 51 24.3418 51C27.3887 51 30.2207 50.4141 32.8379 49.2422C35.4746 48.0703 37.7305 46.4395 39.6055 44.3496C41.5 42.2598 42.9844 39.7012 44.0586 36.6738C45.1328 33.627 45.6699 30.3164 45.6699 26.7422C45.6699 23.168 45.1328 19.8672 44.0586 16.8398C42.9844 13.793 41.5 11.2246 39.6055 9.13477C37.7305 7.04492 35.4746 5.41406 32.8379 4.24219C30.2207 3.07031 27.3887 2.48438 24.3418 2.48438C21.2949 2.48438 18.4531 3.07031 15.8164 4.24219C13.1992 5.41406 10.9434 7.04492 9.04883 9.13477C7.17383 11.2246 5.69922 13.793 4.625 16.8398ZM64.4199 20.6777C64.4199 18.1387 65.2891 16.2344 67.0273 14.9648C68.7852 13.6758 71.041 13.0312 73.7949 13.0312C77.4082 13.0312 80.1621 13.6172 82.0566 14.7891L80.3574 16.0781C79.0879 15.4531 76.9004 15.1406 73.7949 15.1406C71.6074 15.1406 69.8496 15.5801 68.5215 16.459C67.1934 17.3184 66.5293 18.7246 66.5293 20.6777V33.3926C66.5293 34.252 66.666 34.9941 66.9395 35.6191C67.2324 36.2246 67.5938 36.7031 68.0234 37.0547C68.4727 37.4062 69.0586 37.6797 69.7812 37.875C70.5234 38.0508 71.2266 38.168 71.8906 38.2266C72.5742 38.2852 73.4043 38.3145 74.3809 38.3145C78.248 38.3145 80.1816 37.4551 80.1816 35.7363C80.1816 34.7402 79.791 34.0176 79.0098 33.5684C78.2285 33.1191 77.2227 32.8945 75.9922 32.8945C73.1797 32.8945 70.5625 33.4414 68.1406 34.5352V32.4258C70.582 31.4297 73.209 30.9316 76.0215 30.9316C77.8184 30.9316 79.3125 31.3223 80.5039 32.1035C81.6953 32.8652 82.291 34.0762 82.291 35.7363C82.291 37.2988 81.5488 38.4707 80.0645 39.252C78.5996 40.0332 76.7051 40.4238 74.3809 40.4238C73.2285 40.4238 72.1836 40.3652 71.2461 40.248C70.3086 40.1113 69.4004 39.8867 68.5215 39.5742C67.6621 39.2422 66.9395 38.8223 66.3535 38.3145C65.7676 37.7871 65.2988 37.1133 64.9473 36.293C64.5957 35.4531 64.4199 34.4863 64.4199 33.3926V20.6777ZM60.2012 20.6777C60.2012 18.1191 60.8164 15.9316 62.0469 14.1152C63.2969 12.2793 64.9277 10.9414 66.9395 10.1016C68.9512 9.24219 71.2363 8.8125 73.7949 8.8125C78.7559 8.8125 82.6035 9.92578 85.3379 12.1523L83.668 13.4414C81.3438 11.7617 78.0527 10.9219 73.7949 10.9219C70.4551 10.9219 67.7012 11.7715 65.5332 13.4707C63.3848 15.1504 62.3105 17.5527 62.3105 20.6777V33.3926C62.3105 35.0332 62.6133 36.459 63.2188 37.6699C63.8438 38.8809 64.7227 39.8379 65.8555 40.541C66.9883 41.2246 68.2578 41.7324 69.6641 42.0645C71.0703 42.377 72.6426 42.5332 74.3809 42.5332C77.2715 42.5332 79.6641 41.9375 81.5586 40.7461C83.4531 39.5547 84.4004 37.8848 84.4004 35.7363C84.4004 33.5488 83.6094 31.8691 82.0273 30.6973C80.4453 29.5059 78.5215 28.9102 76.2559 28.9102C73.3848 28.9102 70.6797 29.4277 68.1406 30.4629V28.2363C70.7773 27.3574 73.4922 26.918 76.2852 26.918C79.1367 26.918 81.5488 27.709 83.5215 29.291C85.5137 30.8535 86.5098 33.002 86.5098 35.7363C86.5098 38.4902 85.3574 40.668 83.0527 42.2695C80.748 43.8516 77.8574 44.6426 74.3809 44.6426C72.3887 44.6426 70.5527 44.4277 68.873 43.998C67.1934 43.5488 65.6992 42.8848 64.3906 42.0059C63.082 41.127 62.0566 39.9551 61.3145 38.4902C60.5723 37.0254 60.2012 35.3262 60.2012 33.3926V20.6777ZM55.9824 20.6777C55.9824 18.1387 56.4512 15.8438 57.3887 13.793C58.3262 11.7227 59.6055 10.0332 61.2266 8.72461C62.8477 7.39648 64.7324 6.38086 66.8809 5.67773C69.0293 4.95508 71.334 4.59375 73.7949 4.59375C76.8027 4.59375 79.5957 5.02344 82.1738 5.88281C84.752 6.74219 86.9102 7.95313 88.6484 9.51562L87.0078 10.834C85.4453 9.50586 83.5117 8.49023 81.207 7.78711C78.9219 7.06445 76.4512 6.70312 73.7949 6.70312C71.627 6.70312 69.5957 7.01563 67.7012 7.64062C65.8066 8.24609 64.1367 9.125 62.6914 10.2773C61.2656 11.4297 60.1426 12.9043 59.3223 14.7012C58.502 16.4785 58.0918 18.4707 58.0918 20.6777V33.3926C58.0918 35.5996 58.5117 37.5723 59.3516 39.3105C60.2109 41.0293 61.3828 42.4258 62.8672 43.5C64.3711 44.5742 66.0898 45.3848 68.0234 45.9316C69.9766 46.4785 72.0957 46.752 74.3809 46.752C78.4238 46.752 81.8027 45.7559 84.5176 43.7637C87.252 41.752 88.6191 39.0762 88.6191 35.7363C88.6191 33.4707 88.0332 31.498 86.8613 29.8184C85.709 28.1387 84.2246 26.8984 82.4082 26.0977C80.5918 25.2969 78.5898 24.8965 76.4023 24.8965C73.5312 24.8965 70.7773 25.3555 68.1406 26.2734V24.1348C70.8945 23.2949 73.668 22.875 76.4609 22.875C79.0586 22.875 81.4414 23.4219 83.6094 24.5156C85.7969 25.6094 87.5254 27.1426 88.7949 29.1152C90.084 31.0879 90.7285 33.2949 90.7285 35.7363C90.7285 38.334 89.9863 40.6484 88.502 42.6797C87.0371 44.6914 85.0645 46.2246 82.584 47.2793C80.123 48.334 77.3887 48.8613 74.3809 48.8613C71.8223 48.8613 69.4395 48.5293 67.2324 47.8652C65.0449 47.2012 63.1016 46.2441 61.4023 44.9941C59.7227 43.7246 58.3945 42.1035 57.418 40.1309C56.4609 38.1387 55.9824 35.8926 55.9824 33.3926V20.6777ZM51.7637 20.6777C51.7637 17.5918 52.3398 14.7695 53.4922 12.2109C54.6641 9.63281 56.2461 7.49414 58.2383 5.79492C60.2305 4.07617 62.5645 2.74805 65.2402 1.81055C67.916 0.853516 70.7676 0.375 73.7949 0.375C77.4473 0.375 80.8457 0.951172 83.9902 2.10352C87.1543 3.23633 89.8008 4.82812 91.9297 6.87891L90.2305 8.13867C88.2969 6.3418 85.8945 4.95508 83.0234 3.97852C80.1719 2.98242 77.0957 2.48438 73.7949 2.48438C71.041 2.48438 68.4629 2.89453 66.0605 3.71484C63.6582 4.51562 61.5488 5.66797 59.7324 7.17188C57.916 8.65625 56.4805 10.5605 55.4258 12.8848C54.3906 15.209 53.873 17.8066 53.873 20.6777V33.3926C53.873 35.6191 54.2246 37.6895 54.9277 39.6035C55.6309 41.498 56.6074 43.1387 57.8574 44.5254C59.1074 45.9121 60.582 47.0938 62.2812 48.0703C64 49.0469 65.875 49.7793 67.9062 50.2676C69.957 50.7363 72.1152 50.9707 74.3809 50.9707C76.9004 50.9707 79.2832 50.6094 81.5293 49.8867C83.7949 49.1445 85.7578 48.1191 87.418 46.8105C89.0781 45.502 90.3965 43.8906 91.373 41.9766C92.3496 40.0625 92.8379 37.9824 92.8379 35.7363C92.8379 33.5098 92.3691 31.4395 91.4316 29.5254C90.4941 27.6113 89.2539 26.0293 87.7109 24.7793C86.1875 23.5098 84.4492 22.5234 82.4961 21.8203C80.543 21.1172 78.5312 20.7656 76.4609 20.7656C73.4922 20.7656 70.7188 21.2051 68.1406 22.084V19.916C70.8164 19.1543 73.6289 18.7734 76.5781 18.7734C78.9805 18.7734 81.2852 19.1836 83.4922 20.0039C85.7188 20.8047 87.6719 21.9277 89.3516 23.373C91.0508 24.7988 92.4082 26.5859 93.4238 28.7344C94.4395 30.8828 94.9473 33.2168 94.9473 35.7363C94.9473 38.2754 94.4004 40.6387 93.3066 42.8262C92.2324 44.9941 90.7676 46.8301 88.9121 48.334C87.0566 49.8184 84.8691 50.9805 82.3496 51.8203C79.8496 52.6602 77.1934 53.0801 74.3809 53.0801C71.2363 53.0801 68.2969 52.6406 65.5625 51.7617C62.8477 50.8828 60.4551 49.623 58.3848 47.9824C56.334 46.3418 54.7129 44.2715 53.5215 41.7715C52.3496 39.252 51.7637 36.459 51.7637 33.3926V20.6777Z" fill="#414141"/>
</svg>
