<svg width="87" height="54" viewBox="0 0 87 54" fill="none" xmlns="http://www.w3.org/2000/svg">
<path d="M3.95117 40.623C1.91992 36.5996 0.904297 32.0098 0.904297 26.8535C0.904297 21.6973 1.91992 17.1074 3.95117 13.084C5.98242 9.06055 8.77539 5.95508 12.3301 3.76758C15.8848 1.58008 19.8887 0.486328 24.3418 0.486328C28.7949 0.486328 32.7988 1.58008 36.3535 3.76758C39.9082 5.95508 42.7012 9.06055 44.7324 13.084C46.7637 17.1074 47.7793 21.6973 47.7793 26.8535C47.7793 32.0098 46.7637 36.5996 44.7324 40.623C42.7012 44.6465 39.9082 47.752 36.3535 49.9395C32.7988 52.127 28.7949 53.2207 24.3418 53.2207C19.8887 53.2207 15.8848 52.127 12.3301 49.9395C8.77539 47.752 5.98242 44.6465 3.95117 40.623ZM32.1934 16.7754C34.1465 19.1777 35.123 22.5371 35.123 26.8535C35.123 31.1699 34.1465 34.5391 32.1934 36.9609C30.2598 39.3633 27.6426 40.5645 24.3418 40.5645C21.041 40.5645 18.4141 39.3633 16.4609 36.9609C14.5273 34.5391 13.5605 31.1699 13.5605 26.8535C13.5605 22.5371 14.5273 19.1777 16.4609 16.7754C18.4141 14.3535 21.041 13.1426 24.3418 13.1426C27.6426 13.1426 30.2598 14.3535 32.1934 16.7754ZM35.1816 13.7871C37.9551 17.0293 39.3418 21.3848 39.3418 26.8535C39.3418 32.3223 37.9551 36.6777 35.1816 39.9199C32.4277 43.1621 28.8145 44.7832 24.3418 44.7832C19.8691 44.7832 16.2461 43.1621 13.4727 39.9199C10.7188 36.6777 9.3418 32.3223 9.3418 26.8535C9.3418 21.3848 10.7188 17.0293 13.4727 13.7871C16.2461 10.5449 19.8691 8.92383 24.3418 8.92383C28.8145 8.92383 32.4277 10.5449 35.1816 13.7871ZM41.0703 15.2227C42.7305 18.582 43.5605 22.459 43.5605 26.8535C43.5605 31.248 42.7305 35.1348 41.0703 38.5137C39.4297 41.873 37.1543 44.4609 34.2441 46.2773C31.334 48.0938 28.0332 49.002 24.3418 49.002C20.6504 49.002 17.3496 48.0938 14.4395 46.2773C11.5293 44.4609 9.24414 41.873 7.58398 38.5137C5.94336 35.1348 5.12305 31.248 5.12305 26.8535C5.12305 22.459 5.94336 18.582 7.58398 15.2227C9.24414 11.8438 11.5293 9.24609 14.4395 7.42969C17.3496 5.61328 20.6504 4.70508 24.3418 4.70508C28.0332 4.70508 31.334 5.61328 34.2441 7.42969C37.1543 9.24609 39.4297 11.8438 41.0703 15.2227ZM17.9551 18.2402C16.4316 20.2324 15.6699 23.1035 15.6699 26.8535C15.6699 30.6035 16.4316 33.4746 17.9551 35.4668C19.498 37.459 21.627 38.4551 24.3418 38.4551C27.0566 38.4551 29.1758 37.459 30.6992 35.4668C32.2422 33.4746 33.0137 30.6035 33.0137 26.8535C33.0137 23.1035 32.2422 20.2324 30.6992 18.2402C29.1758 16.248 27.0566 15.252 24.3418 15.252C21.627 15.252 19.498 16.248 17.9551 18.2402ZM14.9668 15.2812C12.623 18.0938 11.4512 21.9512 11.4512 26.8535C11.4512 31.7559 12.623 35.623 14.9668 38.4551C17.3301 41.2676 20.4551 42.6738 24.3418 42.6738C28.2285 42.6738 31.3438 41.2676 33.6875 38.4551C36.0508 35.623 37.2324 31.7559 37.2324 26.8535C37.2324 21.9512 36.0508 18.0938 33.6875 15.2812C31.3438 12.4492 28.2285 11.0332 24.3418 11.0332C20.4551 11.0332 17.3301 12.4492 14.9668 15.2812ZM11.9785 12.293C8.81445 15.9453 7.23242 20.7988 7.23242 26.8535C7.23242 32.9082 8.81445 37.7617 11.9785 41.4141C15.1621 45.0664 19.2832 46.8926 24.3418 46.8926C29.4004 46.8926 33.5117 45.0664 36.6758 41.4141C39.8594 37.7617 41.4512 32.9082 41.4512 26.8535C41.4512 20.7988 39.8594 15.9453 36.6758 12.293C33.5117 8.64062 29.4004 6.81445 24.3418 6.81445C19.2832 6.81445 15.1621 8.64062 11.9785 12.293ZM4.625 16.9512C3.55078 19.9785 3.01367 23.2793 3.01367 26.8535C3.01367 30.4277 3.55078 33.7383 4.625 36.7852C5.69922 39.8125 7.17383 42.3711 9.04883 44.4609C10.9434 46.5508 13.1992 48.1816 15.8164 49.3535C18.4531 50.5254 21.2949 51.1113 24.3418 51.1113C27.3887 51.1113 30.2207 50.5254 32.8379 49.3535C35.4746 48.1816 37.7305 46.5508 39.6055 44.4609C41.5 42.3711 42.9844 39.8125 44.0586 36.7852C45.1328 33.7383 45.6699 30.4277 45.6699 26.8535C45.6699 23.2793 45.1328 19.9785 44.0586 16.9512C42.9844 13.9043 41.5 11.3359 39.6055 9.24609C37.7305 7.15625 35.4746 5.52539 32.8379 4.35352C30.2207 3.18164 27.3887 2.5957 24.3418 2.5957C21.2949 2.5957 18.4531 3.18164 15.8164 4.35352C13.1992 5.52539 10.9434 7.15625 9.04883 9.24609C7.17383 11.3359 5.69922 13.9043 4.625 16.9512ZM84.0195 2.5957H86.2168L74.2637 51.1113H72.0664L84.0195 2.5957ZM67.5547 11.0332L67.0566 13.1426H51.2949V11.0332H67.5547ZM68.5508 6.81445L68.0527 8.92383H51.2949V6.81445H68.5508ZM69.4883 2.5957L69.0781 4.70508H51.2949V2.5957H69.4883ZM70.9824 2.5957H73.1504L61.1973 51.1113H59.0293L70.9824 2.5957ZM75.3184 2.5957H77.5156L65.5625 51.1113H63.3652L75.3184 2.5957ZM79.6836 2.5957H81.8516L69.8984 51.1113H67.7305L79.6836 2.5957Z" fill="#414141"/>
</svg>
