<svg width="353" height="330" viewBox="0 0 353 330" fill="none" xmlns="http://www.w3.org/2000/svg">
<g clip-path="url(#clip0)">
<g opacity="0.8">
<path d="M182.126 102.904C215.966 102.904 243.4 81.7384 243.4 55.6291C243.4 29.5199 215.966 8.35413 182.126 8.35413C148.285 8.35413 120.852 29.5199 120.852 55.6291C120.852 81.7384 148.285 102.904 182.126 102.904Z" fill="url(#paint0_linear)"/>
</g>
<path opacity="0.2" d="M181.625 74L248.125 189.002L314.625 304H181.625H48.625L115.125 189.002L181.625 74Z" fill="#5BC8AA"/>
<g opacity="0.3">
<path d="M197.755 236.953L202.942 221.622C206.604 210.66 202.642 198.603 193.182 191.919L193.224 191.894C191.184 190.463 188.946 189.334 186.581 188.542L186.51 188.517L186.43 188.492C184.134 187.718 181.741 187.27 179.32 187.159C178.464 187.115 177.606 187.115 176.75 187.159C175.264 187.237 173.788 187.44 172.337 187.767C171.916 187.859 171.495 187.964 171.113 188.077C170.73 188.19 170.301 188.311 169.901 188.441C169.102 188.705 168.315 189.003 167.545 189.342C167.158 189.51 166.775 189.686 166.401 189.874C165.269 190.431 164.179 191.07 163.14 191.785C162.791 192.024 162.451 192.271 162.114 192.522C157.956 195.672 154.843 199.993 153.179 204.925L145.026 229.08C143.742 232.868 143.357 236.9 143.898 240.862C143.982 241.469 144.087 242.073 144.209 242.672C144.331 243.271 144.483 243.862 144.63 244.448C144.744 244.838 144.861 245.228 144.992 245.613C145.185 246.187 145.413 246.761 145.627 247.323C145.783 247.696 145.947 248.068 146.119 248.437C146.46 249.17 146.839 249.887 147.247 250.587C147.655 251.286 148.088 251.969 148.576 252.631C148.93 253.126 149.304 253.612 149.691 254.081C150.213 254.71 150.76 255.338 151.34 255.895C153.853 258.418 156.86 260.399 160.175 261.715L160.318 261.774C160.496 261.459 160.692 261.156 160.907 260.865C162.169 259.142 164.365 257.932 166.455 258.384C166.607 258.418 166.758 258.464 166.91 258.51C167.97 258.883 169.013 259.549 170.036 259.876C170.788 260.213 171.652 260.202 172.396 259.846C174.44 258.761 173.683 255.338 175.437 253.838C175.519 253.769 175.605 253.704 175.694 253.645C175.669 253.615 175.647 253.583 175.627 253.549C176.981 252.711 178.857 253.268 180.418 253.809C182.101 254.399 184.297 254.797 185.466 253.427C186.257 252.489 186.198 251.06 186.951 250.075C187.827 248.944 189.476 248.818 190.902 249.02L190.973 249.041C193.708 250.163 196.695 248.299 196.484 245.362C196.236 241.444 197.473 237.753 197.755 236.953Z" fill="url(#paint1_linear)"/>
</g>
<path d="M161.023 259.119C162.24 257.441 164.33 256.267 166.331 256.724C168.333 257.181 170.23 259.098 172.011 258.138C174.446 256.829 172.72 252.018 176.673 251.661C177.497 251.607 178.322 251.751 179.079 252.081C180.747 252.765 183.358 253.536 184.642 251.997C185.397 251.091 185.343 249.711 186.064 248.771C186.898 247.681 188.487 247.543 189.842 247.752L189.909 247.773C192.524 248.86 195.384 247.056 195.18 244.221C194.917 240.446 196.11 236.889 196.369 236.117L201.323 221.306C205.709 208.089 198.656 193.79 185.539 189.307C172.399 184.9 158.188 191.996 153.733 205.187L145.923 228.479C141.709 241.195 148.074 255.012 160.443 260C160.619 259.695 160.812 259.401 161.023 259.119Z" fill="white"/>
<path opacity="0.2" d="M170.125 206C171.506 206 172.625 204.881 172.625 203.5C172.625 202.119 171.506 201 170.125 201C168.744 201 167.625 202.119 167.625 203.5C167.625 204.881 168.744 206 170.125 206Z" fill="black"/>
<path opacity="0.2" d="M186.125 211C187.506 211 188.625 209.881 188.625 208.5C188.625 207.119 187.506 206 186.125 206C184.744 206 183.625 207.119 183.625 208.5C183.625 209.881 184.744 211 186.125 211Z" fill="black"/>
<path d="M177.358 217.075C178.077 214.939 177.505 212.818 176.08 212.339C174.655 211.859 172.917 213.202 172.198 215.339C171.479 217.475 172.052 219.595 173.477 220.075C174.901 220.554 176.639 219.211 177.358 217.075Z" fill="#E0E0E0"/>
<path d="M181.625 102C214.762 102 241.625 81.1812 241.625 55.5C241.625 29.8188 214.762 9 181.625 9C148.488 9 121.625 29.8188 121.625 55.5C121.625 81.1812 148.488 102 181.625 102Z" fill="#3FB755"/>
<path opacity="0.1" d="M131.131 60.885C131.131 35.1525 157.871 14.2918 190.86 14.2918C201.102 14.2351 211.242 16.3426 220.625 20.4782C210.126 13.3384 196.391 9 181.359 9C148.37 9 121.625 29.8607 121.625 55.5932C121.625 72.8714 133.684 87.9531 151.598 96C139.056 87.4575 131.131 74.8957 131.131 60.885Z" fill="white"/>
<g opacity="0.5">
<g opacity="0.3">
<path d="M202.755 72.9525L207.942 57.6215C211.604 46.6603 207.642 34.603 198.182 27.919L198.224 27.8939C196.184 26.4633 193.946 25.3342 191.581 24.5419L191.51 24.5168L191.43 24.4916C189.134 23.7183 186.741 23.2698 184.32 23.1592C183.464 23.1152 182.606 23.1152 181.75 23.1592C180.264 23.2367 178.788 23.4399 177.337 23.7668C176.916 23.8589 176.495 23.9637 176.113 24.0768C175.73 24.19 175.301 24.3115 174.901 24.4413C174.102 24.7053 173.315 25.0028 172.545 25.3422C172.158 25.5098 171.775 25.6858 171.401 25.8743C170.269 26.4311 169.179 27.0696 168.14 27.7849C167.791 28.0238 167.451 28.271 167.114 28.5224C162.956 31.6719 159.843 35.9926 158.179 40.9246L150.026 65.0796C148.742 68.8678 148.357 72.9003 148.898 76.8617C148.982 77.4693 149.087 78.0726 149.209 78.6718C149.331 79.271 149.483 79.8617 149.63 80.4483C149.744 80.838 149.861 81.2277 149.992 81.6131C150.185 82.1872 150.413 82.7612 150.627 83.3226C150.783 83.6955 150.947 84.0684 151.119 84.4372C151.46 85.1704 151.839 85.8869 152.247 86.5866C152.655 87.2863 153.088 87.9693 153.576 88.6313C153.93 89.1257 154.304 89.6117 154.691 90.081C155.213 90.7095 155.76 91.317 156.34 91.8953C158.853 94.4183 161.86 96.3994 165.175 97.7151L165.318 97.7738C165.496 97.4593 165.692 97.1557 165.907 96.8645C167.169 95.1425 169.365 93.9316 171.455 94.3841C171.607 94.4176 171.758 94.4637 171.91 94.5098C172.97 94.8827 174.013 95.5489 175.036 95.8757C175.788 96.2125 176.652 96.2018 177.396 95.8464C179.44 94.7612 178.683 91.338 180.437 89.838C180.519 89.7688 180.605 89.7044 180.694 89.6453C180.669 89.6148 180.647 89.5826 180.627 89.5489C181.981 88.7109 183.857 89.2682 185.418 89.8087C187.101 90.3995 189.297 90.7975 190.466 89.4274C191.257 88.4888 191.198 87.0601 191.951 86.0754C192.827 84.9441 194.476 84.8184 195.902 85.0196H195.973C198.708 86.1425 201.695 84.2779 201.484 81.3408C201.236 77.4441 202.473 73.7528 202.755 72.9525Z" fill="url(#paint2_linear)"/>
</g>
<path d="M166.382 95.574C167.611 93.8981 169.718 92.7249 171.738 93.1816C173.757 93.6383 175.671 95.5531 177.467 94.5936C179.924 93.2863 178.182 88.4805 182.171 88.1243C183.002 88.0696 183.834 88.2132 184.598 88.5433C186.281 89.2263 188.914 89.9972 190.21 88.4595C190.971 87.5545 190.917 86.176 191.645 85.2374C192.486 84.1481 194.089 84.0098 195.456 84.2193L195.523 84.2402C198.161 85.3254 201.047 83.5238 200.841 80.6913C200.576 76.9204 201.779 73.3673 202.04 72.5964L207.038 57.8017C211.463 44.5982 204.348 30.3143 191.114 25.8366C177.859 21.4347 163.523 28.5225 159.028 41.6997L151.149 64.9665C146.898 77.6692 153.319 91.4716 165.797 96.4539C165.975 96.1495 166.17 95.8557 166.382 95.574Z" fill="white"/>
<path opacity="0.2" d="M175.696 42.1019C177.208 42.1019 178.434 40.8807 178.434 39.3743C178.434 37.8678 177.208 36.6466 175.696 36.6466C174.183 36.6466 172.957 37.8678 172.957 39.3743C172.957 40.8807 174.183 42.1019 175.696 42.1019Z" fill="black"/>
<path opacity="0.2" d="M191.27 47.3185C192.782 47.3185 194.009 46.0973 194.009 44.5908C194.009 43.0844 192.782 41.8632 191.27 41.8632C189.757 41.8632 188.531 43.0844 188.531 44.5908C188.531 46.0973 189.757 47.3185 191.27 47.3185Z" fill="black"/>
</g>
<path opacity="0.1" d="M239.066 41C239.846 44.0148 240.239 47.1167 240.236 50.2308C240.236 75.9385 213.337 96.779 180.153 96.779C152.994 96.7622 130.047 82.807 122.625 63.6573C128.138 84.9594 152.415 101 181.538 101C214.722 101 241.625 80.1594 241.625 54.4517C241.616 49.8476 240.748 45.2856 239.066 41Z" fill="black"/>
<g opacity="0.8">
<path d="M181.624 107.621C249.919 107.621 305.282 93.1802 305.282 75.3667C305.282 57.5532 249.919 43.1125 181.624 43.1125C113.33 43.1125 57.9668 57.5532 57.9668 75.3667C57.9668 93.1802 113.33 107.621 181.624 107.621Z" fill="url(#paint3_linear)"/>
</g>
<path d="M181.625 45C115.353 45 61.625 58.8767 61.625 76H301.625C301.625 58.8767 247.897 45 181.625 45Z" fill="white"/>
<path d="M181.625 107C247.897 107 301.625 93.1214 301.625 76H61.625C61.625 93.1214 115.353 107 181.625 107Z" fill="white"/>
<path opacity="0.05" d="M181.625 107C247.897 107 301.625 93.1214 301.625 76H61.625C61.625 93.1214 115.353 107 181.625 107Z" fill="black"/>
<rect opacity="0.05" x="124.625" y="68" width="114" height="16" rx="8" fill="black"/>
<path opacity="0.05" d="M98.625 68C106.357 68 112.625 66.6569 112.625 65C112.625 63.3431 106.357 62 98.625 62C90.893 62 84.625 63.3431 84.625 65C84.625 66.6569 90.893 68 98.625 68Z" fill="black"/>
<path opacity="0.05" d="M98.625 90C106.357 90 112.625 88.6569 112.625 87C112.625 85.3431 106.357 84 98.625 84C90.893 84 84.625 85.3431 84.625 87C84.625 88.6569 90.893 90 98.625 90Z" fill="black"/>
<path opacity="0.05" d="M260.625 68C268.357 68 274.625 66.6569 274.625 65C274.625 63.3431 268.357 62 260.625 62C252.893 62 246.625 63.3431 246.625 65C246.625 66.6569 252.893 68 260.625 68Z" fill="black"/>
<path opacity="0.05" d="M260.625 90C268.357 90 274.625 88.6569 274.625 87C274.625 85.3431 268.357 84 260.625 84C252.893 84 246.625 85.3431 246.625 87C246.625 88.6569 252.893 90 260.625 90Z" fill="black"/>
<path opacity="0.05" d="M181.625 55C189.357 55 195.625 53.6569 195.625 52C195.625 50.3431 189.357 49 181.625 49C173.893 49 167.625 50.3431 167.625 52C167.625 53.6569 173.893 55 181.625 55Z" fill="black"/>
<path opacity="0.05" d="M191.625 25C199.357 25 205.625 23.6569 205.625 22C205.625 20.3431 199.357 19 191.625 19C183.893 19 177.625 20.3431 177.625 22C177.625 23.6569 183.893 25 191.625 25Z" fill="black"/>
<path opacity="0.05" d="M164.625 37C172.357 37 178.625 35.6569 178.625 34C178.625 32.3431 172.357 31 164.625 31C156.893 31 150.625 32.3431 150.625 34C150.625 35.6569 156.893 37 164.625 37Z" fill="black"/>
<path opacity="0.05" d="M217.625 42C225.357 42 231.625 40.6569 231.625 39C231.625 37.3431 225.357 36 217.625 36C209.893 36 203.625 37.3431 203.625 39C203.625 40.6569 209.893 42 217.625 42Z" fill="black"/>
<path opacity="0.05" d="M181.625 99C189.357 99 195.625 97.6569 195.625 96C195.625 94.3431 189.357 93 181.625 93C173.893 93 167.625 94.3431 167.625 96C167.625 97.6569 173.893 99 181.625 99Z" fill="black"/>
<path d="M231.625 208C233.834 208 235.625 206.209 235.625 204C235.625 201.791 233.834 200 231.625 200C229.416 200 227.625 201.791 227.625 204C227.625 206.209 229.416 208 231.625 208Z" fill="white"/>
<path d="M244.625 199C245.73 199 246.625 198.105 246.625 197C246.625 195.895 245.73 195 244.625 195C243.52 195 242.625 195.895 242.625 197C242.625 198.105 243.52 199 244.625 199Z" fill="white"/>
<path opacity="0.5" d="M57.1326 24.049C56.3662 23.7148 55.9713 22.8604 56.2138 22.0607C56.2327 22.001 56.2447 21.9394 56.2497 21.8771C56.2732 21.5131 56.0544 21.177 55.7119 21.0509C55.3694 20.9248 54.9847 21.0386 54.7662 21.3307C54.7303 21.3809 54.7002 21.435 54.6765 21.492C54.3436 22.2593 53.487 22.6545 52.6866 22.41C52.6267 22.3917 52.5651 22.3797 52.5028 22.3742C52.1385 22.3507 51.8022 22.5693 51.6759 22.9115C51.5497 23.2537 51.6636 23.6381 51.956 23.8565C52.0055 23.8946 52.0598 23.9262 52.1174 23.9505C52.8838 24.2847 53.2787 25.1392 53.0362 25.9389C53.0178 25.9971 53.0058 26.0572 53.0003 26.118C52.9746 26.4828 53.1926 26.8209 53.5357 26.9483C53.8788 27.0757 54.2649 26.9619 54.4838 26.6688C54.5207 26.6176 54.5508 26.5619 54.5735 26.5031C54.9145 25.7445 55.7689 25.36 56.5634 25.6075C56.6233 25.6258 56.6849 25.6378 56.7472 25.6433C57.1115 25.6668 57.4478 25.4482 57.5741 25.106C57.7003 24.7638 57.5864 24.3793 57.294 24.161C57.2455 24.1165 57.1912 24.0789 57.1326 24.049Z" fill="#4D8AF0"/>
<path opacity="0.5" d="M270.131 152.049C269.37 151.707 268.985 150.854 269.231 150.061C269.25 150.001 269.262 149.939 269.267 149.877C269.291 149.513 269.071 149.177 268.727 149.051C268.383 148.925 267.997 149.039 267.778 149.331C267.742 149.381 267.712 149.435 267.688 149.492C267.354 150.259 266.494 150.654 265.691 150.41C265.63 150.392 265.569 150.38 265.506 150.374C265.14 150.351 264.803 150.569 264.676 150.911C264.549 151.254 264.664 151.638 264.957 151.856C265.007 151.895 265.061 151.926 265.119 151.951C265.88 152.293 266.265 153.145 266.019 153.939C266.001 153.997 265.988 154.057 265.983 154.118C265.957 154.483 266.176 154.821 266.52 154.948C266.865 155.076 267.252 154.962 267.472 154.669C267.509 154.618 267.539 154.562 267.562 154.503C267.904 153.745 268.762 153.36 269.559 153.607C269.62 153.626 269.681 153.638 269.744 153.643C270.11 153.667 270.447 153.448 270.574 153.106C270.701 152.764 270.586 152.379 270.293 152.161C270.244 152.117 270.19 152.079 270.131 152.049Z" fill="#4D8AF0"/>
<path opacity="0.5" d="M35.1326 211.049C34.3662 210.715 33.9713 209.86 34.2138 209.061C34.2327 209.001 34.2447 208.939 34.2497 208.877C34.2732 208.513 34.0544 208.177 33.7119 208.051C33.3694 207.925 32.9847 208.039 32.7662 208.331C32.7303 208.381 32.7002 208.435 32.6765 208.492C32.3436 209.259 31.487 209.654 30.6866 209.41C30.6267 209.392 30.5651 209.38 30.5028 209.374C30.1385 209.351 29.8022 209.569 29.6759 209.911C29.5497 210.254 29.6636 210.638 29.956 210.856C30.0055 210.895 30.0598 210.926 30.1174 210.951C30.8838 211.285 31.2787 212.139 31.0362 212.939C31.0178 212.997 31.0058 213.057 31.0003 213.118C30.9746 213.483 31.1926 213.821 31.5357 213.948C31.8788 214.076 32.2649 213.962 32.4838 213.669C32.5207 213.618 32.5508 213.562 32.5735 213.503C32.9145 212.745 33.7689 212.36 34.5634 212.607C34.6233 212.626 34.6849 212.638 34.7472 212.643C35.1115 212.667 35.4478 212.448 35.5741 212.106C35.7003 211.764 35.5864 211.379 35.294 211.161C35.2455 211.117 35.1912 211.079 35.1326 211.049Z" fill="#4D8AF0"/>
<path opacity="0.5" d="M12.1102 73.049C11.3525 72.7068 10.9683 71.8545 11.2138 71.0607C11.2327 71.001 11.2447 70.9394 11.2497 70.8771C11.2732 70.5131 11.0544 70.177 10.7119 70.0509C10.3694 69.9248 9.98471 70.0386 9.76618 70.3307C9.73029 70.3809 9.70022 70.435 9.67654 70.492C9.34362 71.2593 8.48705 71.6545 7.68657 71.41C7.62673 71.3917 7.56515 71.3797 7.50281 71.3742C7.13855 71.3507 6.80218 71.5693 6.67595 71.9115C6.54971 72.2537 6.66364 72.6381 6.95601 72.8565C7.00552 72.8946 7.05975 72.9262 7.11736 72.9505C7.88383 73.2847 8.27867 74.1392 8.03616 74.9389C8.01777 74.9971 8.00575 75.0572 8.0003 75.118C7.97456 75.4828 8.19257 75.8209 8.53568 75.9483C8.87879 76.0757 9.26488 75.9619 9.48382 75.6688C9.52065 75.6176 9.55077 75.5619 9.57346 75.5031C9.91447 74.7445 10.7689 74.36 11.5634 74.6075C11.6233 74.6258 11.6849 74.6378 11.7472 74.6433C12.1115 74.6668 12.4478 74.4482 12.5741 74.106C12.7003 73.7638 12.5864 73.3793 12.294 73.161C12.2386 73.1148 12.1767 73.077 12.1102 73.049Z" fill="#4D8AF0"/>
<path opacity="0.5" d="M266.132 3.02454C265.387 2.68504 265.009 1.83959 265.251 1.05217C265.269 0.99299 265.281 0.931894 265.286 0.870041C265.309 0.509005 265.094 0.175613 264.757 0.0504942C264.421 -0.0746248 264.042 0.0382993 263.828 0.328085C263.792 0.377859 263.763 0.43151 263.739 0.488007C263.404 1.24051 262.564 1.62196 261.783 1.37646C261.724 1.35829 261.664 1.34638 261.602 1.34092C261.21 1.25791 260.816 1.4767 260.676 1.85561C260.536 2.23452 260.692 2.65967 261.043 2.85573C261.091 2.89359 261.145 2.92494 261.201 2.94902C261.946 3.28852 262.324 4.13397 262.083 4.92139C262.065 4.97916 262.053 5.03874 262.047 5.09908C262.009 5.47564 262.232 5.82947 262.587 5.95424C262.941 6.07901 263.334 5.94207 263.537 5.62326C263.573 5.57249 263.603 5.51725 263.625 5.4589C263.96 4.7064 264.8 4.32495 265.581 4.57045C265.64 4.58862 265.701 4.60053 265.762 4.60599C266.12 4.62927 266.451 4.41245 266.575 4.07298C266.699 3.73352 266.587 3.35219 266.3 3.1356C266.249 3.09082 266.193 3.05344 266.132 3.02454Z" fill="#4D8AF0"/>
<g opacity="0.5">
<rect x="46.5078" y="107.378" width="1.23529" height="7.55556" fill="#47E6B1"/>
<path d="M50.625 110.489V111.822H43.625V110.489H50.625Z" fill="#47E6B1"/>
</g>
<g opacity="0.5">
<rect x="348.508" y="74.3778" width="1.23529" height="7.55556" fill="#47E6B1"/>
<path d="M352.625 77.4889V78.8222H345.625V77.4889H352.625Z" fill="#47E6B1"/>
</g>
<g opacity="0.5">
<rect x="306.508" y="190.378" width="1.23529" height="7.55556" fill="#47E6B1"/>
<path d="M310.625 193.489V194.822H303.625V193.489H310.625Z" fill="#47E6B1"/>
</g>
<path opacity="0.5" d="M303.125 37C304.506 37 305.625 35.8807 305.625 34.5C305.625 33.1193 304.506 32 303.125 32C301.744 32 300.625 33.1193 300.625 34.5C300.625 35.8807 301.744 37 303.125 37Z" fill="#F55F44"/>
<path opacity="0.5" d="M3.125 8C4.50571 8 5.625 6.88071 5.625 5.5C5.625 4.11929 4.50571 3 3.125 3C1.74429 3 0.625 4.11929 0.625 5.5C0.625 6.88071 1.74429 8 3.125 8Z" fill="#F55F44"/>
<path opacity="0.5" d="M79.125 152C80.5057 152 81.625 150.881 81.625 149.5C81.625 148.119 80.5057 147 79.125 147C77.7443 147 76.625 148.119 76.625 149.5C76.625 150.881 77.7443 152 79.125 152Z" fill="#F55F44"/>
<path d="M84.6 281.6H22V256.2L67.4 160H98.6L53.2 256.2H84.6V220.2H112.2V256.2H125V281.6H112.2V304H84.6V281.6ZM182.447 307C171.914 307 162.58 304.8 154.447 300.4C146.447 295.867 140.18 289.6 135.647 281.6C131.247 273.467 129.047 264.133 129.047 253.6V210.4C129.047 199.867 131.247 190.6 135.647 182.6C140.18 174.467 146.447 168.2 154.447 163.8C162.58 159.267 171.914 157 182.447 157C192.98 157 202.247 159.267 210.247 163.8C218.38 168.2 224.647 174.467 229.047 182.6C233.58 190.6 235.847 199.867 235.847 210.4V253.6C235.847 264.133 233.58 273.467 229.047 281.6C224.647 289.6 218.38 295.867 210.247 300.4C202.247 304.8 192.98 307 182.447 307ZM182.447 281.2C189.647 281.2 195.714 278.733 200.647 273.8C205.58 268.867 208.047 262.8 208.047 255.6V208.2C208.047 201 205.58 194.933 200.647 190C195.714 185.067 189.647 182.6 182.447 182.6C175.247 182.6 169.18 185.067 164.247 190C159.314 194.933 156.847 201 156.847 208.2V255.6C156.847 262.8 159.314 268.867 164.247 273.8C169.18 278.733 175.247 281.2 182.447 281.2ZM302.413 281.6H239.813V256.2L285.213 160H316.413L271.013 256.2H302.413V220.2H330.013V256.2H342.812V281.6H330.013V304H302.413V281.6Z" fill="#68D87A"/>
</g>
<defs>
<linearGradient id="paint0_linear" x1="243.402" y1="102.908" x2="243.402" y2="8.35413" gradientUnits="userSpaceOnUse">
<stop stop-color="#808080" stop-opacity="0.25"/>
<stop offset="0.54" stop-color="#808080" stop-opacity="0.12"/>
<stop offset="1" stop-color="#808080" stop-opacity="0.1"/>
</linearGradient>
<linearGradient id="paint1_linear" x1="191.897" y1="279.774" x2="227.055" y2="211.191" gradientUnits="userSpaceOnUse">
<stop stop-color="#808080" stop-opacity="0.25"/>
<stop offset="0.54" stop-color="#808080" stop-opacity="0.12"/>
<stop offset="1" stop-color="#808080" stop-opacity="0.1"/>
</linearGradient>
<linearGradient id="paint2_linear" x1="196.97" y1="115.372" x2="232.128" y2="46.7894" gradientUnits="userSpaceOnUse">
<stop stop-color="#808080" stop-opacity="0.25"/>
<stop offset="0.54" stop-color="#808080" stop-opacity="0.12"/>
<stop offset="1" stop-color="#808080" stop-opacity="0.1"/>
</linearGradient>
<linearGradient id="paint3_linear" x1="305.282" y1="107.621" x2="305.282" y2="43.1125" gradientUnits="userSpaceOnUse">
<stop stop-color="#808080" stop-opacity="0.25"/>
<stop offset="0.54" stop-color="#808080" stop-opacity="0.12"/>
<stop offset="1" stop-color="#808080" stop-opacity="0.1"/>
</linearGradient>
<clipPath id="clip0">
<rect width="353" height="330" fill="white"/>
</clipPath>
</defs>
</svg>
