<svg width="353" height="330" viewBox="0 0 353 330" fill="none" xmlns="http://www.w3.org/2000/svg">
   <path d="M231.625 208C233.834 208 235.625 206.209 235.625 204C235.625 201.791 233.834 200 231.625 200C229.416 200 227.625 201.791 227.625 204C227.625 206.209 229.416 208 231.625 208Z" fill="white"/>
   <path d="M244.625 199C245.73 199 246.625 198.105 246.625 197C246.625 195.895 245.73 195 244.625 195C243.52 195 242.625 195.895 242.625 197C242.625 198.105 243.52 199 244.625 199Z" fill="white"/>
   <path opacity="0.5" d="M57.1326 24.049C56.3662 23.7148 55.9713 22.8604 56.2138 22.0607C56.2327 22.001 56.2447 21.9394 56.2497 21.8771C56.2732 21.5131 56.0544 21.177 55.7119 21.0509C55.3694 20.9248 54.9847 21.0386 54.7662 21.3307C54.7303 21.3809 54.7002 21.435 54.6765 21.492C54.3436 22.2593 53.487 22.6545 52.6866 22.41C52.6267 22.3917 52.5651 22.3797 52.5028 22.3742C52.1385 22.3507 51.8022 22.5693 51.6759 22.9115C51.5497 23.2537 51.6636 23.6381 51.956 23.8565C52.0055 23.8946 52.0598 23.9262 52.1174 23.9505C52.8838 24.2847 53.2787 25.1392 53.0362 25.9389C53.0178 25.9971 53.0058 26.0572 53.0003 26.118C52.9746 26.4828 53.1926 26.8209 53.5357 26.9483C53.8788 27.0757 54.2649 26.9619 54.4838 26.6688C54.5207 26.6176 54.5508 26.5619 54.5735 26.5031C54.9145 25.7445 55.7689 25.36 56.5634 25.6075C56.6233 25.6258 56.6849 25.6378 56.7472 25.6433C57.1115 25.6668 57.4478 25.4482 57.5741 25.106C57.7003 24.7638 57.5864 24.3793 57.294 24.161C57.2455 24.1165 57.1912 24.0789 57.1326 24.049Z" fill="#4D8AF0"/>
   <path opacity="0.5" d="M270.131 152.049C269.37 151.707 268.985 150.854 269.231 150.061C269.25 150.001 269.262 149.939 269.267 149.877C269.291 149.513 269.071 149.177 268.727 149.051C268.383 148.925 267.997 149.039 267.778 149.331C267.742 149.381 267.712 149.435 267.688 149.492C267.354 150.259 266.494 150.654 265.691 150.41C265.63 150.392 265.569 150.38 265.506 150.374C265.14 150.351 264.803 150.569 264.676 150.911C264.549 151.254 264.664 151.638 264.957 151.856C265.007 151.895 265.061 151.926 265.119 151.951C265.88 152.293 266.265 153.145 266.019 153.939C266.001 153.997 265.988 154.057 265.983 154.118C265.957 154.483 266.176 154.821 266.52 154.948C266.865 155.076 267.252 154.962 267.472 154.669C267.509 154.618 267.539 154.562 267.562 154.503C267.904 153.745 268.762 153.36 269.559 153.607C269.62 153.626 269.681 153.638 269.744 153.643C270.11 153.667 270.447 153.448 270.574 153.106C270.701 152.764 270.586 152.379 270.293 152.161C270.244 152.117 270.19 152.079 270.131 152.049Z" fill="#4D8AF0"/>
   <path opacity="0.5" d="M35.1326 211.049C34.3662 210.715 33.9713 209.86 34.2138 209.061C34.2327 209.001 34.2447 208.939 34.2497 208.877C34.2732 208.513 34.0544 208.177 33.7119 208.051C33.3694 207.925 32.9847 208.039 32.7662 208.331C32.7303 208.381 32.7002 208.435 32.6765 208.492C32.3436 209.259 31.487 209.654 30.6866 209.41C30.6267 209.392 30.5651 209.38 30.5028 209.374C30.1385 209.351 29.8022 209.569 29.6759 209.911C29.5497 210.254 29.6636 210.638 29.956 210.856C30.0055 210.895 30.0598 210.926 30.1174 210.951C30.8838 211.285 31.2787 212.139 31.0362 212.939C31.0178 212.997 31.0058 213.057 31.0003 213.118C30.9746 213.483 31.1926 213.821 31.5357 213.948C31.8788 214.076 32.2649 213.962 32.4838 213.669C32.5207 213.618 32.5508 213.562 32.5735 213.503C32.9145 212.745 33.7689 212.36 34.5634 212.607C34.6233 212.626 34.6849 212.638 34.7472 212.643C35.1115 212.667 35.4478 212.448 35.5741 212.106C35.7003 211.764 35.5864 211.379 35.294 211.161C35.2455 211.117 35.1912 211.079 35.1326 211.049Z" fill="#4D8AF0"/>
   <path opacity="0.5" d="M12.1102 73.049C11.3525 72.7068 10.9683 71.8545 11.2138 71.0607C11.2327 71.001 11.2447 70.9394 11.2497 70.8771C11.2732 70.5131 11.0544 70.177 10.7119 70.0509C10.3694 69.9248 9.98471 70.0386 9.76618 70.3307C9.73029 70.3809 9.70022 70.435 9.67654 70.492C9.34362 71.2593 8.48705 71.6545 7.68657 71.41C7.62673 71.3917 7.56515 71.3797 7.50281 71.3742C7.13855 71.3507 6.80218 71.5693 6.67595 71.9115C6.54971 72.2537 6.66364 72.6381 6.95601 72.8565C7.00552 72.8946 7.05975 72.9262 7.11736 72.9505C7.88383 73.2847 8.27867 74.1392 8.03616 74.9389C8.01777 74.9971 8.00575 75.0572 8.0003 75.118C7.97456 75.4828 8.19257 75.8209 8.53568 75.9483C8.87879 76.0757 9.26488 75.9619 9.48382 75.6688C9.52065 75.6176 9.55077 75.5619 9.57346 75.5031C9.91447 74.7445 10.7689 74.36 11.5634 74.6075C11.6233 74.6258 11.6849 74.6378 11.7472 74.6433C12.1115 74.6668 12.4478 74.4482 12.5741 74.106C12.7003 73.7638 12.5864 73.3793 12.294 73.161C12.2386 73.1148 12.1767 73.077 12.1102 73.049Z" fill="#4D8AF0"/>
   <path opacity="0.5" d="M266.132 3.02454C265.387 2.68504 265.009 1.83959 265.251 1.05217C265.269 0.99299 265.281 0.931894 265.286 0.870041C265.309 0.509005 265.094 0.175613 264.757 0.0504942C264.421 -0.0746248 264.042 0.0382993 263.828 0.328085C263.792 0.377859 263.763 0.43151 263.739 0.488007C263.404 1.24051 262.564 1.62196 261.783 1.37646C261.724 1.35829 261.664 1.34638 261.602 1.34092C261.21 1.25791 260.816 1.4767 260.676 1.85561C260.536 2.23452 260.692 2.65967 261.043 2.85573C261.091 2.89359 261.145 2.92494 261.201 2.94902C261.946 3.28852 262.324 4.13397 262.083 4.92139C262.065 4.97916 262.053 5.03874 262.047 5.09908C262.009 5.47564 262.232 5.82947 262.587 5.95424C262.941 6.07901 263.334 5.94207 263.537 5.62326C263.573 5.57249 263.603 5.51725 263.625 5.4589C263.96 4.7064 264.8 4.32495 265.581 4.57045C265.64 4.58862 265.701 4.60053 265.762 4.60599C266.12 4.62927 266.451 4.41245 266.575 4.07298C266.699 3.73352 266.587 3.35219 266.3 3.1356C266.249 3.09082 266.193 3.05344 266.132 3.02454Z" fill="#4D8AF0"/>
   <g opacity="0.5">
      <rect x="46.5078" y="107.378" width="1.23529" height="7.55556" fill="#47E6B1"/>
      <path d="M50.625 110.489V111.822H43.625V110.489H50.625Z" fill="#47E6B1"/>
   </g>
   <g opacity="0.5">
      <rect x="348.508" y="74.3778" width="1.23529" height="7.55556" fill="#47E6B1"/>
      <path d="M352.625 77.4889V78.8222H345.625V77.4889H352.625Z" fill="#47E6B1"/>
   </g>
   <g opacity="0.5">
      <rect x="306.508" y="190.378" width="1.23529" height="7.55556" fill="#47E6B1"/>
      <path d="M310.625 193.489V194.822H303.625V193.489H310.625Z" fill="#47E6B1"/>
   </g>
   <path opacity="0.5" d="M303.125 37C304.506 37 305.625 35.8807 305.625 34.5C305.625 33.1193 304.506 32 303.125 32C301.744 32 300.625 33.1193 300.625 34.5C300.625 35.8807 301.744 37 303.125 37Z" fill="#F55F44"/>
   <path opacity="0.5" d="M3.125 8C4.50571 8 5.625 6.88071 5.625 5.5C5.625 4.11929 4.50571 3 3.125 3C1.74429 3 0.625 4.11929 0.625 5.5C0.625 6.88071 1.74429 8 3.125 8Z" fill="#F55F44"/>
   <path opacity="0.5" d="M79.125 152C80.5057 152 81.625 150.881 81.625 149.5C81.625 148.119 80.5057 147 79.125 147C77.7443 147 76.625 148.119 76.625 149.5C76.625 150.881 77.7443 152 79.125 152Z" fill="#F55F44"/>
   <path d="M84.6 281.6H22V256.2L67.4 160H98.6L53.2 256.2H84.6V220.2H112.2V256.2H125V281.6H112.2V304H84.6V281.6ZM182.447 307C171.914 307 162.58 304.8 154.447 300.4C146.447 295.867 140.18 289.6 135.647 281.6C131.247 273.467 129.047 264.133 129.047 253.6V210.4C129.047 199.867 131.247 190.6 135.647 182.6C140.18 174.467 146.447 168.2 154.447 163.8C162.58 159.267 171.914 157 182.447 157C192.98 157 202.247 159.267 210.247 163.8C218.38 168.2 224.647 174.467 229.047 182.6C233.58 190.6 235.847 199.867 235.847 210.4V253.6C235.847 264.133 233.58 273.467 229.047 281.6C224.647 289.6 218.38 295.867 210.247 300.4C202.247 304.8 192.98 307 182.447 307ZM182.447 281.2C189.647 281.2 195.714 278.733 200.647 273.8C205.58 268.867 208.047 262.8 208.047 255.6V208.2C208.047 201 205.58 194.933 200.647 190C195.714 185.067 189.647 182.6 182.447 182.6C175.247 182.6 169.18 185.067 164.247 190C159.314 194.933 156.847 201 156.847 208.2V255.6C156.847 262.8 159.314 268.867 164.247 273.8C169.18 278.733 175.247 281.2 182.447 281.2ZM302.413 281.6H239.813V256.2L285.213 160H316.413L271.013 256.2H302.413V220.2H330.013V256.2H342.812V281.6H330.013V304H302.413V281.6Z" fill="#68D87A"/>
</svg>
