<svg width="1221" height="489" viewBox="0 0 1221 489" fill="none" xmlns="http://www.w3.org/2000/svg">
<path d="M977.479 0.000111468L1025.99 0.000113589L1025.99 489L-699.973 489L-699.973 440.504L977.479 440.504L977.479 392.008L-699.973 392.008L-699.973 343.512L977.479 343.512L977.479 295.017L-699.973 295.017L-699.973 246.521L977.479 246.521L977.479 198.025L-699.973 198.025L-699.973 149.529L977.479 149.529L977.479 0.000111468ZM1074.5 0.000115709L1123.01 0.000117829L1123.01 489L1074.5 489L1074.5 0.000115709ZM1171.52 0.00011995L1220.03 0.00012207L1220.03 489L1171.52 489L1171.52 0.00011995Z" fill="#0E0E0E"/>
</svg>
