<svg width="62" height="75" viewBox="0 0 62 75" fill="none" xmlns="http://www.w3.org/2000/svg">
<g opacity="0.3">
<path d="M54.7548 49.9525L59.9419 34.6215C63.604 23.6603 59.6421 11.603 50.1819 4.919L50.224 4.89386C48.1837 3.46326 45.9463 2.33424 43.5813 1.54191L43.5098 1.51677L43.4298 1.49163C41.1342 0.718328 38.741 0.269818 36.3202 0.159226C35.4639 0.115219 34.606 0.115219 33.7498 0.159226C32.2641 0.23667 30.7878 0.439918 29.3367 0.766768C28.916 0.858946 28.4953 0.963695 28.1125 1.07682C27.7297 1.18995 27.3006 1.31146 26.9009 1.44135C26.1016 1.70532 25.3149 2.0028 24.5451 2.34219C24.158 2.50978 23.7752 2.68576 23.4008 2.87431C22.2686 3.43105 21.1789 4.06963 20.1404 4.78492C19.7913 5.02375 19.4505 5.27096 19.114 5.52235C14.9556 8.6719 11.8427 12.9926 10.1785 17.9246L2.02555 42.0796C0.742397 45.8678 0.356522 49.9003 0.8981 53.8617C0.982238 54.4693 1.08741 55.0726 1.20941 55.6718C1.33141 56.271 1.48286 56.8617 1.6301 57.4483C1.74369 57.838 1.86148 58.2277 1.99189 58.6131C2.18541 59.1872 2.41258 59.7612 2.62713 60.3226C2.78279 60.6955 2.94686 61.0684 3.11934 61.4372C3.4601 62.1704 3.83872 62.8869 4.24679 63.5866C4.65486 64.2863 5.08817 64.9693 5.57617 65.6313C5.92955 66.1257 6.30396 66.6117 6.691 67.081C7.21265 67.7095 7.75955 68.338 8.3401 68.8953C10.8528 71.4183 13.86 73.3994 17.1746 74.7151L17.3176 74.7738C17.4956 74.4593 17.6923 74.1557 17.9066 73.8645C19.1687 72.1425 21.3647 70.9316 23.4555 71.3841C23.6069 71.4176 23.7584 71.4637 23.9098 71.5098C24.97 71.8827 26.0133 72.5489 27.0355 72.8757C27.7882 73.2125 28.6516 73.2018 29.3956 72.8464C31.4402 71.7612 30.6829 68.338 32.4372 66.838C32.5189 66.7688 32.6046 66.7044 32.6938 66.6453C32.669 66.6148 32.6465 66.5826 32.6265 66.5489C33.9811 65.7109 35.8574 66.2682 37.4182 66.8087C39.1009 67.3995 41.2969 67.7975 42.4664 66.4274C43.2573 65.4888 43.1984 64.0601 43.9515 63.0754C44.8265 61.9441 46.4756 61.8184 47.9018 62.0196L47.9733 62.0405C50.7078 63.1634 53.6947 61.2989 53.4843 58.3617C53.2361 54.4441 54.4729 50.7528 54.7548 49.9525Z" fill="url(#paint0_linear)"/>
</g>
<path d="M18.0227 72.1192C19.2403 70.4414 21.3296 69.267 23.3312 69.7241C25.3329 70.1813 27.2303 72.0982 29.0109 71.1377C31.4463 69.829 29.7198 65.018 33.6731 64.6615C34.4969 64.6067 35.3218 64.7505 36.0793 65.0809C37.7473 65.7646 40.3578 66.5364 41.6422 64.997C42.397 64.091 42.3428 62.7111 43.0642 61.7715C43.8982 60.6809 45.487 60.5425 46.8423 60.7523L46.909 60.7732C49.5237 61.8596 52.3844 60.056 52.1801 57.2205C51.9174 53.4455 53.11 49.8887 53.3686 49.1169L58.3227 34.3063C62.7095 21.0887 55.6563 6.7895 42.5388 2.307C29.3991 -2.09958 15.1881 4.99579 10.7333 18.1871L2.92269 41.4788C-1.29139 54.1952 5.07352 68.0123 17.443 73C17.6189 72.6952 17.8125 72.4011 18.0227 72.1192Z" fill="white"/>
<path opacity="0.2" d="M27.125 19C28.5057 19 29.625 17.8807 29.625 16.5C29.625 15.1193 28.5057 14 27.125 14C25.7443 14 24.625 15.1193 24.625 16.5C24.625 17.8807 25.7443 19 27.125 19Z" fill="black"/>
<path opacity="0.2" d="M43.125 24C44.5057 24 45.625 22.8807 45.625 21.5C45.625 20.1193 44.5057 19 43.125 19C41.7443 19 40.625 20.1193 40.625 21.5C40.625 22.8807 41.7443 24 43.125 24Z" fill="black"/>
<path d="M34.3583 30.0752C35.0772 27.9389 34.5049 25.8184 33.08 25.3389C31.6551 24.8593 29.9172 26.2024 29.1982 28.3386C28.4793 30.4749 29.0516 32.5954 30.4765 33.0749C31.9014 33.5545 33.6393 32.2114 34.3583 30.0752Z" fill="#E0E0E0"/>
<defs>
<linearGradient id="paint0_linear" x1="48.8975" y1="92.774" x2="84.0554" y2="24.191" gradientUnits="userSpaceOnUse">
<stop stop-color="#808080" stop-opacity="0.25"/>
<stop offset="0.54" stop-color="#808080" stop-opacity="0.12"/>
<stop offset="1" stop-color="#808080" stop-opacity="0.1"/>
</linearGradient>
</defs>
</svg>
