<svg width="24" height="24" viewBox="0 0 24 24" fill="none" xmlns="http://www.w3.org/2000/svg">
<path d="M13.914 16.62C13.287 16.879 12.638 17 12 17C9.239 17 7 14.761 7 12C7 9.239 9.239 7 12 7C14.761 7 17 9.239 17 12V12.833C17 13.6 16.378 14.222 15.611 14.222C14.844 14.222 14.222 13.6 14.222 12.833V12C14.222 10.773 13.227 9.778 12 9.778V9.778C10.773 9.778 9.778 10.773 9.778 12C9.778 13.227 10.773 14.222 12 14.222C13.227 14.222 14.222 13.227 14.222 12" stroke="#F9F9F9" stroke-width="1.5" stroke-linecap="round" stroke-linejoin="round"/>
<path fill-rule="evenodd" clip-rule="evenodd" d="M3.6885 3.68876V3.68876C2.7705 4.60676 2.7705 6.09576 3.6885 7.01376V7.01376C4.6065 7.93176 4.6065 9.42076 3.6885 10.3388V10.3388C2.7705 11.2568 2.7705 12.7458 3.6885 13.6638V13.6638C4.6065 14.5818 4.6065 16.0708 3.6885 16.9888V16.9888C2.7705 17.9068 2.7705 19.3958 3.6885 20.3138V20.3138C4.6065 21.2318 6.0955 21.2318 7.0135 20.3138V20.3138C7.9315 19.3958 9.4205 19.3958 10.3385 20.3138V20.3138C11.2565 21.2318 12.7455 21.2318 13.6635 20.3138V20.3138C14.5815 19.3958 16.0705 19.3958 16.9885 20.3138V20.3138C17.9065 21.2318 19.3955 21.2318 20.3135 20.3138V20.3138C21.2315 19.3958 21.2315 17.9068 20.3135 16.9888V16.9888C19.3955 16.0708 19.3955 14.5818 20.3135 13.6638V13.6638C21.2315 12.7458 21.2315 11.2568 20.3135 10.3388V10.3388C19.3955 9.42076 19.3955 7.93176 20.3135 7.01376V7.01376C21.2315 6.09576 21.2315 4.60676 20.3135 3.68876V3.68876C19.3955 2.77076 17.9065 2.77076 16.9885 3.68876V3.68876C16.0705 4.60676 14.5815 4.60676 13.6635 3.68876V3.68876C12.7455 2.77076 11.2565 2.77076 10.3385 3.68876V3.68876C9.4205 4.60676 7.9315 4.60676 7.0135 3.68876V3.68876C6.0945 2.76976 4.6065 2.76976 3.6885 3.68876Z" stroke="#F9F9F9" stroke-width="1.5" stroke-linecap="round" stroke-linejoin="round"/>
</svg>
