<svg width="24" height="25" viewBox="0 0 24 25" fill="none" xmlns="http://www.w3.org/2000/svg">
<path fill-rule="evenodd" clip-rule="evenodd" d="M7.496 3.44141H16.505C18.987 3.44141 21 5.45341 21 7.93741V16.9464C21 19.4284 18.988 21.4414 16.504 21.4414H7.496C5.013 21.4414 3 19.4294 3 16.9454V7.93741C3 5.45441 5.012 3.44141 7.496 3.44141V3.44141Z" stroke="white" stroke-width="1.5" stroke-linecap="round" stroke-linejoin="round"/>
<path d="M16.9487 7.1542C16.7627 7.1552 16.6117 7.3062 16.6117 7.4922C16.6117 7.6782 16.7637 7.8292 16.9497 7.8292C17.1357 7.8292 17.2867 7.6782 17.2867 7.4922C17.2877 7.3052 17.1357 7.1542 16.9487 7.1542" stroke="white" stroke-width="1.5" stroke-linecap="round" stroke-linejoin="round"/>
<path d="M14.544 9.89573C15.9499 11.3016 15.9499 13.581 14.544 14.9869C13.1381 16.3928 10.8587 16.3928 9.45285 14.9869C8.04697 13.581 8.04697 11.3016 9.45285 9.89573C10.8587 8.48984 13.1381 8.48984 14.544 9.89573" stroke="white" stroke-width="1.5" stroke-linecap="round" stroke-linejoin="round"/>
</svg>
