<svg width="71" height="70" viewBox="0 0 71 70" fill="none" xmlns="http://www.w3.org/2000/svg">
<path fill-rule="evenodd" clip-rule="evenodd" d="M22.1757 8.69678H48.8273C56.1699 8.69678 62.125 14.5294 62.125 21.7304V47.847C62.125 55.0421 56.1728 60.8777 48.8243 60.8777H22.1757C14.8301 60.8777 8.875 55.045 8.875 47.8441V21.7304C8.875 14.5323 14.8272 8.69678 22.1757 8.69678V8.69678Z" stroke="white" stroke-opacity="0.9" stroke-width="1.5" stroke-linecap="round" stroke-linejoin="round"/>
<path d="M50.1417 19.4606C49.5915 19.4635 49.1448 19.9012 49.1448 20.4404C49.1448 20.9796 49.5944 21.4174 50.1447 21.4174C50.6949 21.4174 51.1416 20.9796 51.1416 20.4404C51.1446 19.8983 50.6949 19.4606 50.1417 19.4606" stroke="white" stroke-opacity="0.9" stroke-width="1.5" stroke-linecap="round" stroke-linejoin="round"/>
<path d="M43.0264 27.4078C47.1855 31.4834 47.1855 38.0912 43.0264 42.1668C38.8673 46.2424 32.1241 46.2424 27.965 42.1668C23.8059 38.0912 23.8059 31.4834 27.965 27.4078C32.1241 23.3322 38.8673 23.3322 43.0264 27.4078" stroke="white" stroke-opacity="0.9" stroke-width="1.5" stroke-linecap="round" stroke-linejoin="round"/>
</svg>
