<svg width="99" height="49" viewBox="0 0 99 49" fill="none" xmlns="http://www.w3.org/2000/svg">
<path d="M48.0507 5.91752H49.1229V22H48.0507V5.91752ZM52.3798 8.2268C52.3798 8.02062 52.4486 7.84192 52.586 7.69072C52.7372 7.53952 52.9228 7.46392 53.1427 7.46392C53.3627 7.46392 53.5413 7.53952 53.6788 7.69072C53.83 7.84192 53.9056 8.02062 53.9056 8.2268C53.9056 8.43299 53.83 8.61168 53.6788 8.76289C53.5413 8.91409 53.3627 8.98969 53.1427 8.98969C52.9228 8.98969 52.7372 8.91409 52.586 8.76289C52.4486 8.61168 52.3798 8.43299 52.3798 8.2268ZM52.6066 12.5155H53.6788V22H52.6066V12.5155ZM57.172 5.91752H58.2442V22H57.172V5.91752ZM65.0681 22.2062C64.2159 22.2062 63.4599 21.9931 62.8001 21.567C62.1403 21.1409 61.618 20.5567 61.2331 19.8144C60.862 19.0584 60.6764 18.1993 60.6764 17.2371C60.6764 16.2749 60.8688 15.4227 61.2537 14.6804C61.6386 13.9381 62.1747 13.3608 62.862 12.9485C63.5492 12.5223 64.3396 12.3093 65.2331 12.3093C66.0991 12.3093 66.8551 12.5086 67.5011 12.9072C68.1609 13.3058 68.6695 13.8557 69.0269 14.5567C69.398 15.2577 69.5836 16.0756 69.5836 17.0103C69.5836 17.2165 69.5699 17.3883 69.5424 17.5258H61.7692C61.8242 18.6392 62.1609 19.5326 62.7795 20.2062C63.4118 20.866 64.2159 21.1959 65.1919 21.1959C65.9204 21.1959 66.5527 21.0378 67.0888 20.7216C67.6386 20.4055 68.1266 19.9107 68.5527 19.2371L69.4187 19.7938C68.374 21.4021 66.9238 22.2062 65.0681 22.2062ZM65.2331 13.2577C64.2846 13.2577 63.5011 13.5601 62.8826 14.1649C62.2778 14.7698 61.9204 15.5808 61.8104 16.5979H68.429C68.4152 15.9519 68.2709 15.3814 67.996 14.8866C67.7211 14.378 67.3431 13.9794 66.862 13.6907C66.3809 13.4021 65.8379 13.2577 65.2331 13.2577ZM77.0226 12.5155H78.404L73.9298 16.433L78.7957 22H77.4349L72.9607 16.8866V22H71.8885V5.91752H72.9607V16.0825L77.0226 12.5155ZM79.362 17.2577C79.362 16.2955 79.575 15.4433 80.0011 14.701C80.4272 13.9588 81.0046 13.3746 81.7331 12.9485C82.4754 12.5223 83.307 12.3093 84.2279 12.3093C85.1489 12.3093 85.9736 12.5223 86.7022 12.9485C87.4444 13.3746 88.0286 13.9588 88.4547 14.701C88.8809 15.4433 89.0939 16.2955 89.0939 17.2577C89.0939 18.2062 88.8809 19.0584 88.4547 19.8144C88.0286 20.5567 87.4444 21.1409 86.7022 21.567C85.9736 21.9931 85.1489 22.2062 84.2279 22.2062C83.307 22.2062 82.4754 21.9931 81.7331 21.567C81.0046 21.1409 80.4272 20.5567 80.0011 19.8144C79.575 19.0584 79.362 18.2062 79.362 17.2577ZM80.4547 17.2577C80.4547 18.0137 80.6197 18.6942 80.9496 19.299C81.2795 19.89 81.7262 20.3574 82.2898 20.701C82.8671 21.0309 83.5132 21.1959 84.2279 21.1959C84.9427 21.1959 85.5819 21.0309 86.1455 20.701C86.7228 20.3574 87.1764 19.89 87.5063 19.299C87.8362 18.6942 88.0011 18.0137 88.0011 17.2577C88.0011 16.488 87.8362 15.8076 87.5063 15.2165C87.1764 14.6254 86.7228 14.1649 86.1455 13.8351C85.5819 13.4914 84.9427 13.3196 84.2279 13.3196C83.5132 13.3196 82.8671 13.4914 82.2898 13.8351C81.7262 14.1649 81.2795 14.6254 80.9496 15.2165C80.6197 15.8076 80.4547 16.488 80.4547 17.2577ZM89.6745 12.5155H90.8909L94.0456 20.2474L97.2002 12.5155H98.4167L94.0456 22.5567L89.6745 12.5155Z" fill="#F9F9F9"/>
<path d="M48.0301 37.8557C48.2363 38.3643 48.5593 38.811 48.9992 39.1959C49.4391 39.5808 50.0301 39.7732 50.7724 39.7732C51.3497 39.7732 51.8102 39.6289 52.1538 39.3402C52.5112 39.0515 52.6899 38.6392 52.6899 38.1031C52.6899 37.7182 52.58 37.4021 52.36 37.1546C52.1401 36.8935 51.8514 36.6804 51.494 36.5155C51.1367 36.3368 50.7518 36.1787 50.3394 36.0412C49.8858 35.89 49.4528 35.7113 49.0404 35.5052C48.6281 35.2852 48.2913 35.0034 48.0301 34.6598C47.769 34.3024 47.6384 33.8419 47.6384 33.2784C47.6384 32.7423 47.769 32.3024 48.0301 31.9588C48.305 31.6014 48.6624 31.3333 49.1023 31.1546C49.5422 30.9759 50.0026 30.8866 50.4837 30.8866C51.2947 30.8866 51.9751 31.079 52.525 31.4639C53.0748 31.8488 53.4734 32.3024 53.7208 32.8247L52.8342 33.3608C52.6143 32.9485 52.305 32.5911 51.9064 32.2887C51.5078 31.9863 50.9923 31.8351 50.36 31.8351C49.9064 31.8351 49.5147 31.9519 49.1848 32.1856C48.8549 32.4055 48.6899 32.7491 48.6899 33.2165C48.6899 33.5876 48.793 33.8969 48.9992 34.1443C49.2054 34.378 49.4803 34.5704 49.8239 34.7216C50.1676 34.8729 50.5318 35.0172 50.9167 35.1546C51.4253 35.3333 51.8927 35.5395 52.3188 35.7732C52.7586 36.0069 53.1092 36.3024 53.3703 36.6598C53.6452 37.0034 53.7827 37.4433 53.7827 37.9794C53.7827 38.8041 53.494 39.4777 52.9167 40C52.3531 40.5086 51.6178 40.7629 50.7105 40.7629C50.0507 40.7629 49.4734 40.646 48.9786 40.4124C48.4975 40.1787 48.1057 39.8763 47.8033 39.5052C47.5009 39.134 47.2879 38.7491 47.1641 38.3505L48.0301 37.8557ZM54.9233 31.0722H56.4697V27.7732H57.5419V31.0722H59.0883V32.0825H57.5419V40.5567H56.4697V32.0825H54.9233V31.0722ZM61.9692 37.0928C61.9692 37.9313 62.1479 38.5842 62.5053 39.0515C62.8764 39.5189 63.44 39.7526 64.196 39.7526C64.7321 39.7526 65.2063 39.622 65.6187 39.3608C66.0448 39.0997 66.3747 38.7491 66.6084 38.3093C66.8558 37.8694 66.9795 37.3814 66.9795 36.8454V31.0722H68.0517V40.5567H66.9795V38.5773C66.7184 39.2646 66.3266 39.8007 65.8043 40.1856C65.2819 40.5704 64.6634 40.7629 63.9486 40.7629C62.9589 40.7629 62.2029 40.4467 61.6806 39.8144C61.1582 39.1684 60.8971 38.3024 60.8971 37.2165V31.0722H61.9692V37.0928ZM70.4823 35.8144C70.4823 34.7973 70.6885 33.9175 71.1008 33.1753C71.5132 32.433 72.063 31.8625 72.7503 31.4639C73.4514 31.0653 74.2211 30.866 75.0596 30.866C75.8706 30.866 76.5785 31.0859 77.1833 31.5258C77.7881 31.9656 78.2555 32.5567 78.5854 33.299V24.4742H79.6575V40.5567H78.5854V38.3299C78.2555 39.0722 77.7881 39.6632 77.1833 40.1031C76.5785 40.543 75.8706 40.7629 75.0596 40.7629C74.2211 40.7629 73.4514 40.5636 72.7503 40.1649C72.063 39.7663 71.5132 39.1959 71.1008 38.4536C70.6885 37.7113 70.4823 36.8316 70.4823 35.8144ZM71.5751 35.8144C71.5751 36.6392 71.74 37.3471 72.0699 37.9381C72.3998 38.5155 72.8397 38.9622 73.3895 39.2784C73.9393 39.5945 74.5441 39.7526 75.2039 39.7526C75.795 39.7526 76.3448 39.5808 76.8534 39.2371C77.3758 38.8935 77.795 38.4261 78.1111 37.8351C78.4273 37.244 78.5854 36.5704 78.5854 35.8144C78.5854 35.0584 78.4273 34.3849 78.1111 33.7938C77.795 33.2027 77.3758 32.7354 76.8534 32.3918C76.3448 32.0481 75.795 31.8763 75.2039 31.8763C74.5441 31.8763 73.9393 32.0344 73.3895 32.3505C72.8397 32.6529 72.3998 33.0997 72.0699 33.6907C71.74 34.2818 71.5751 34.9897 71.5751 35.8144ZM82.8043 26.7835C82.8043 26.5773 82.873 26.3986 83.0105 26.2474C83.1617 26.0962 83.3472 26.0206 83.5672 26.0206C83.7871 26.0206 83.9658 26.0962 84.1033 26.2474C84.2545 26.3986 84.3301 26.5773 84.3301 26.7835C84.3301 26.9897 84.2545 27.1684 84.1033 27.3196C83.9658 27.4708 83.7871 27.5464 83.5672 27.5464C83.3472 27.5464 83.1617 27.4708 83.0105 27.3196C82.873 27.1684 82.8043 26.9897 82.8043 26.7835ZM83.0311 31.0722H84.1033V40.5567H83.0311V31.0722ZM86.7717 35.8144C86.7717 34.8522 86.9848 34 87.4109 33.2577C87.837 32.5155 88.4144 31.9313 89.1429 31.5052C89.8852 31.079 90.7168 30.866 91.6377 30.866C92.5587 30.866 93.3834 31.079 94.112 31.5052C94.8542 31.9313 95.4384 32.5155 95.8645 33.2577C96.2906 34 96.5037 34.8522 96.5037 35.8144C96.5037 36.7629 96.2906 37.6151 95.8645 38.3711C95.4384 39.1134 94.8542 39.6976 94.112 40.1237C93.3834 40.5498 92.5587 40.7629 91.6377 40.7629C90.7168 40.7629 89.8852 40.5498 89.1429 40.1237C88.4144 39.6976 87.837 39.1134 87.4109 38.3711C86.9848 37.6151 86.7717 36.7629 86.7717 35.8144ZM87.8645 35.8144C87.8645 36.5704 88.0295 37.2509 88.3594 37.8557C88.6893 38.4467 89.136 38.9141 89.6996 39.2577C90.2769 39.5876 90.923 39.7526 91.6377 39.7526C92.3525 39.7526 92.9917 39.5876 93.5553 39.2577C94.1326 38.9141 94.5862 38.4467 94.9161 37.8557C95.246 37.2509 95.4109 36.5704 95.4109 35.8144C95.4109 35.0447 95.246 34.3643 94.9161 33.7732C94.5862 33.1821 94.1326 32.7216 93.5553 32.3918C92.9917 32.0481 92.3525 31.8763 91.6377 31.8763C90.923 31.8763 90.2769 32.0481 89.6996 32.3918C89.136 32.7216 88.6893 33.1821 88.3594 33.7732C88.0295 34.3643 87.8645 35.0447 87.8645 35.8144Z" fill="#F9F9F9"/>
<path d="M19.145 15.5876V14.8596L18.4583 15.1014L0.891302 21.2869L0.547036 21.4082V21.7731V27.134V27.4989L0.891301 27.6202L18.4583 33.8057L19.145 34.0475V33.3195V27.7525V27.3685L18.777 27.2586L9.38006 24.4536L18.777 21.6485L19.145 21.5387V21.1546V15.5876ZM32.9272 2.49479H32.5244L32.427 2.88558L21.8291 45.401L21.6695 46.0412H22.3293H27.8138H28.2165L28.3139 45.6504L38.9119 3.13493L39.0715 2.49479H38.4117H32.9272Z" fill="#68D87A" stroke="#68D87A" stroke-width="1.03093"/>
</svg>
