
<svg width="51" height="35" viewBox="0 0 51 35" fill="none" xmlns="http://www.w3.org/2000/svg">
    <path d="M1.58 0.399999H2.62V16H1.58V0.399999ZM5.77922 2.64C5.77922 2.44 5.84589 2.26667 5.97922 2.12C6.12589 1.97333 6.30589 1.9 6.51922 1.9C6.73255 1.9 6.90589 1.97333 7.03922 2.12C7.18589 2.26667 7.25922 2.44 7.25922 2.64C7.25922 2.84 7.18589 3.01333 7.03922 3.16C6.90589 3.30667 6.73255 3.38 6.51922 3.38C6.30589 3.38 6.12589 3.30667 5.97922 3.16C5.84589 3.01333 5.77922 2.84 5.77922 2.64ZM5.99922 6.8H7.03922V16H5.99922V6.8ZM10.4277 0.399999H11.4677V16H10.4277V0.399999ZM18.0869 16.2C17.2602 16.2 16.5269 15.9933 15.8869 15.58C15.2469 15.1667 14.7402 14.6 14.3669 13.88C14.0069 13.1467 13.8269 12.3133 13.8269 11.38C13.8269 10.4467 14.0135 9.62 14.3869 8.9C14.7602 8.18 15.2802 7.62 15.9469 7.22C16.6135 6.80667 17.3802 6.6 18.2469 6.6C19.0869 6.6 19.8202 6.79333 20.4469 7.18C21.0869 7.56667 21.5802 8.1 21.9269 8.78C22.2869 9.46 22.4669 10.2533 22.4669 11.16C22.4669 11.36 22.4535 11.5267 22.4269 11.66H14.8869C14.9402 12.74 15.2669 13.6067 15.8669 14.26C16.4802 14.9 17.2602 15.22 18.2069 15.22C18.9135 15.22 19.5269 15.0667 20.0469 14.76C20.5802 14.4533 21.0535 13.9733 21.4669 13.32L22.3069 13.86C21.2935 15.42 19.8869 16.2 18.0869 16.2ZM18.2469 7.52C17.3269 7.52 16.5669 7.81333 15.9669 8.4C15.3802 8.98667 15.0335 9.77333 14.9269 10.76H21.3469C21.3335 10.1333 21.1935 9.58 20.9269 9.1C20.6602 8.60667 20.2935 8.22 19.8269 7.94C19.3602 7.66 18.8335 7.52 18.2469 7.52ZM29.6827 6.8H31.0227L26.6827 10.6L31.4027 16H30.0827L25.7427 11.04V16H24.7027V0.399999H25.7427V10.26L29.6827 6.8ZM31.9519 11.4C31.9519 10.4667 32.1585 9.64 32.5719 8.92C32.9852 8.2 33.5452 7.63333 34.2519 7.22C34.9719 6.80667 35.7785 6.6 36.6719 6.6C37.5652 6.6 38.3652 6.80667 39.0719 7.22C39.7919 7.63333 40.3585 8.2 40.7719 8.92C41.1852 9.64 41.3919 10.4667 41.3919 11.4C41.3919 12.32 41.1852 13.1467 40.7719 13.88C40.3585 14.6 39.7919 15.1667 39.0719 15.58C38.3652 15.9933 37.5652 16.2 36.6719 16.2C35.7785 16.2 34.9719 15.9933 34.2519 15.58C33.5452 15.1667 32.9852 14.6 32.5719 13.88C32.1585 13.1467 31.9519 12.32 31.9519 11.4ZM33.0119 11.4C33.0119 12.1333 33.1719 12.7933 33.4919 13.38C33.8119 13.9533 34.2452 14.4067 34.7919 14.74C35.3519 15.06 35.9785 15.22 36.6719 15.22C37.3652 15.22 37.9852 15.06 38.5319 14.74C39.0919 14.4067 39.5319 13.9533 39.8519 13.38C40.1719 12.7933 40.3319 12.1333 40.3319 11.4C40.3319 10.6533 40.1719 9.99333 39.8519 9.42C39.5319 8.84667 39.0919 8.4 38.5319 8.08C37.9852 7.74667 37.3652 7.58 36.6719 7.58C35.9785 7.58 35.3519 7.74667 34.7919 8.08C34.2452 8.4 33.8119 8.84667 33.4919 9.42C33.1719 9.99333 33.0119 10.6533 33.0119 11.4ZM41.955 6.8H43.135L46.195 14.3L49.255 6.8H50.435L46.195 16.54L41.955 6.8Z" fill="#F9F9F9"/>
    <path d="M1.56 31.38C1.76 31.8733 2.07333 32.3067 2.5 32.68C2.92667 33.0533 3.5 33.24 4.22 33.24C4.78 33.24 5.22667 33.1 5.56 32.82C5.90667 32.54 6.08 32.14 6.08 31.62C6.08 31.2467 5.97333 30.94 5.76 30.7C5.54667 30.4467 5.26667 30.24 4.92 30.08C4.57333 29.9067 4.2 29.7533 3.8 29.62C3.36 29.4733 2.94 29.3 2.54 29.1C2.14 28.8867 1.81333 28.6133 1.56 28.28C1.30667 27.9333 1.18 27.4867 1.18 26.94C1.18 26.42 1.30667 25.9933 1.56 25.66C1.82667 25.3133 2.17333 25.0533 2.6 24.88C3.02667 24.7067 3.47333 24.62 3.94 24.62C4.72667 24.62 5.38667 24.8067 5.92 25.18C6.45333 25.5533 6.84 25.9933 7.08 26.5L6.22 27.02C6.00667 26.62 5.70667 26.2733 5.32 25.98C4.93333 25.6867 4.43333 25.54 3.82 25.54C3.38 25.54 3 25.6533 2.68 25.88C2.36 26.0933 2.2 26.4267 2.2 26.88C2.2 27.24 2.3 27.54 2.5 27.78C2.7 28.0067 2.96667 28.1933 3.3 28.34C3.63333 28.4867 3.98667 28.6267 4.36 28.76C4.85333 28.9333 5.30667 29.1333 5.72 29.36C6.14667 29.5867 6.48667 29.8733 6.74 30.22C7.00667 30.5533 7.14 30.98 7.14 31.5C7.14 32.3 6.86 32.9533 6.3 33.46C5.75333 33.9533 5.04 34.2 4.16 34.2C3.52 34.2 2.96 34.0867 2.48 33.86C2.01333 33.6333 1.63333 33.34 1.34 32.98C1.04667 32.62 0.84 32.2467 0.72 31.86L1.56 31.38ZM8.24641 24.8H9.74641V21.6H10.7864V24.8H12.2864V25.78H10.7864V34H9.74641V25.78H8.24641V24.8ZM15.0809 30.64C15.0809 31.4533 15.2543 32.0867 15.6009 32.54C15.9609 32.9933 16.5076 33.22 17.2409 33.22C17.7609 33.22 18.2209 33.0933 18.6209 32.84C19.0343 32.5867 19.3543 32.2467 19.5809 31.82C19.8209 31.3933 19.9409 30.92 19.9409 30.4V24.8H20.9809V34H19.9409V32.08C19.6876 32.7467 19.3076 33.2667 18.8009 33.64C18.2943 34.0133 17.6943 34.2 17.0009 34.2C16.0409 34.2 15.3076 33.8933 14.8009 33.28C14.2943 32.6533 14.0409 31.8133 14.0409 30.76V24.8H15.0809V30.64ZM23.3386 29.4C23.3386 28.4133 23.5386 27.56 23.9386 26.84C24.3386 26.12 24.8719 25.5667 25.5386 25.18C26.2186 24.7933 26.9653 24.6 27.7786 24.6C28.5653 24.6 29.2519 24.8133 29.8386 25.24C30.4253 25.6667 30.8786 26.24 31.1986 26.96V18.4H32.2386V34H31.1986V31.84C30.8786 32.56 30.4253 33.1333 29.8386 33.56C29.2519 33.9867 28.5653 34.2 27.7786 34.2C26.9653 34.2 26.2186 34.0067 25.5386 33.62C24.8719 33.2333 24.3386 32.68 23.9386 31.96C23.5386 31.24 23.3386 30.3867 23.3386 29.4ZM24.3986 29.4C24.3986 30.2 24.5586 30.8867 24.8786 31.46C25.1986 32.02 25.6253 32.4533 26.1586 32.76C26.6919 33.0667 27.2786 33.22 27.9186 33.22C28.4919 33.22 29.0253 33.0533 29.5186 32.72C30.0253 32.3867 30.4319 31.9333 30.7386 31.36C31.0453 30.7867 31.1986 30.1333 31.1986 29.4C31.1986 28.6667 31.0453 28.0133 30.7386 27.44C30.4319 26.8667 30.0253 26.4133 29.5186 26.08C29.0253 25.7467 28.4919 25.58 27.9186 25.58C27.2786 25.58 26.6919 25.7333 26.1586 26.04C25.6253 26.3333 25.1986 26.7667 24.8786 27.34C24.5586 27.9133 24.3986 28.6 24.3986 29.4ZM35.2909 20.64C35.2909 20.44 35.3576 20.2667 35.4909 20.12C35.6376 19.9733 35.8176 19.9 36.0309 19.9C36.2443 19.9 36.4176 19.9733 36.5509 20.12C36.6976 20.2667 36.7709 20.44 36.7709 20.64C36.7709 20.84 36.6976 21.0133 36.5509 21.16C36.4176 21.3067 36.2443 21.38 36.0309 21.38C35.8176 21.38 35.6376 21.3067 35.4909 21.16C35.3576 21.0133 35.2909 20.84 35.2909 20.64ZM35.5109 24.8H36.5509V34H35.5109V24.8ZM39.1394 29.4C39.1394 28.4667 39.346 27.64 39.7594 26.92C40.1727 26.2 40.7327 25.6333 41.4394 25.22C42.1594 24.8067 42.966 24.6 43.8594 24.6C44.7527 24.6 45.5527 24.8067 46.2594 25.22C46.9794 25.6333 47.546 26.2 47.9594 26.92C48.3727 27.64 48.5794 28.4667 48.5794 29.4C48.5794 30.32 48.3727 31.1467 47.9594 31.88C47.546 32.6 46.9794 33.1667 46.2594 33.58C45.5527 33.9933 44.7527 34.2 43.8594 34.2C42.966 34.2 42.1594 33.9933 41.4394 33.58C40.7327 33.1667 40.1727 32.6 39.7594 31.88C39.346 31.1467 39.1394 30.32 39.1394 29.4ZM40.1994 29.4C40.1994 30.1333 40.3594 30.7933 40.6794 31.38C40.9994 31.9533 41.4327 32.4067 41.9794 32.74C42.5394 33.06 43.166 33.22 43.8594 33.22C44.5527 33.22 45.1727 33.06 45.7194 32.74C46.2794 32.4067 46.7194 31.9533 47.0394 31.38C47.3594 30.7933 47.5194 30.1333 47.5194 29.4C47.5194 28.6533 47.3594 27.9933 47.0394 27.42C46.7194 26.8467 46.2794 26.4 45.7194 26.08C45.1727 25.7467 44.5527 25.58 43.8594 25.58C43.166 25.58 42.5394 25.7467 41.9794 26.08C41.4327 26.4 40.9994 26.8467 40.6794 27.42C40.3594 27.9933 40.1994 28.6533 40.1994 29.4Z" fill="#F9F9F9"/>
</svg>
