<svg width="61" height="55" viewBox="0 0 61 55" fill="none" xmlns="http://www.w3.org/2000/svg">
   <ellipse cx="30.5" cy="42" rx="30.5" ry="13" fill="#3FB755" fill-opacity="0.2"/>
   <ellipse cx="30" cy="41.5" rx="11" ry="4.5" fill="#3FB755"/>
   <g filter="url(#filter0_d)">
      <path d="M45 23C45 30.2569 39.8467 36.3101 33 37.6999C30.6728 38.1723 30 42 30 42C30 42 29.1874 38.144 27 37.6999C20.1533 36.3101 15 30.2569 15 23C15 14.7157 21.7157 8 30 8C38.2843 8 45 14.7157 45 23Z" fill="#3FB755"/>
   </g>
   <path d="M28.9544 20.1416V19.9019L28.7283 19.9815L22.9436 22.0184L22.8303 22.0583V22.1785V23.9437V24.0639L22.9436 24.1038L28.7283 26.1407L28.9544 26.2203V25.9806V24.1474V24.021L28.8332 23.9848L25.7389 23.0611L28.8332 22.1374L28.9544 22.1013V21.9748V20.1416ZM33.4928 15.8303H33.3602L33.3281 15.9589L29.8383 29.9589L29.7857 30.1697H30.003H31.809H31.9416L31.9737 30.0411L35.4635 16.0411L35.516 15.8303H35.2988H33.4928Z" fill="#111111" stroke="#111111" stroke-width="0.339476"/>
   <defs>
      <filter id="filter0_d" x="7" y="0" width="50" height="54" filterUnits="userSpaceOnUse" color-interpolation-filters="sRGB">
         <feFlood flood-opacity="0" result="BackgroundImageFix"/>
         <feColorMatrix in="SourceAlpha" type="matrix" values="0 0 0 0 0 0 0 0 0 0 0 0 0 0 0 0 0 0 127 0"/>
         <feOffset dx="2" dy="2"/>
         <feGaussianBlur stdDeviation="5"/>
         <feColorMatrix type="matrix" values="0 0 0 0 0 0 0 0 0 0 0 0 0 0 0 0 0 0 0.25 0"/>
         <feBlend mode="normal" in2="BackgroundImageFix" result="effect1_dropShadow"/>
         <feBlend mode="normal" in="SourceGraphic" in2="effect1_dropShadow" result="shape"/>
      </filter>
   </defs>
</svg>
