<svg width="24" height="24" viewBox="0 0 24 24" fill="none" xmlns="http://www.w3.org/2000/svg">
<path d="M5.53607 21.886C5.69756 21.971 5.87925 22.01 6.06137 21.9989C6.2435 21.9878 6.4191 21.9269 6.56907 21.823L19.5691 12.823C19.7015 12.7306 19.8097 12.6075 19.8844 12.4643C19.959 12.3211 19.998 12.162 19.998 12.0005C19.998 11.839 19.959 11.6799 19.8844 11.5367C19.8097 11.3935 19.7015 11.2705 19.5691 11.178L6.56907 2.17802C6.41905 2.07421 6.24348 2.01342 6.06138 2.00224C5.87929 1.99105 5.6976 2.02989 5.536 2.11456C5.3744 2.19922 5.23903 2.32648 5.14457 2.48256C5.0501 2.63864 5.00013 2.81758 5.00007 3.00002L5.00007 21C5.00004 21.1826 5.04997 21.3616 5.14446 21.5178C5.23894 21.674 5.37437 21.8013 5.53607 21.886ZM7.00007 4.90902L17.2431 12L7.00007 19.091L7.00007 4.90902Z" fill="white" fill-opacity="0.9"/>
</svg>
