<svg width="24" height="24" viewBox="0 0 24 24" fill="none" xmlns="http://www.w3.org/2000/svg">
<path fill-rule="evenodd" clip-rule="evenodd" d="M11.444 21.9999H5.111C3.945 21.9999 3 21.0549 3 19.8889V9.33292C3 8.16692 3.945 7.22192 5.111 7.22192H11.444C12.61 7.22192 13.555 8.16692 13.555 9.33292V19.8889C13.556 21.0549 12.61 21.9999 11.444 21.9999Z" stroke="#F9F9F9" stroke-width="1.5" stroke-linecap="round" stroke-linejoin="round"/>
<path d="M9.75391 7.22202L10.7329 3.56502C11.0349 2.43902 12.1929 1.77002 13.3189 2.07202L19.4359 3.71102C20.5619 4.01302 21.2309 5.17002 20.9289 6.29702L18.1969 16.493C17.8949 17.619 16.7379 18.288 15.6119 17.986L13.5569 17.436" stroke="#F9F9F9" stroke-width="1.5" stroke-linecap="round" stroke-linejoin="round"/>
</svg>
