<svg width="249" height="99" viewBox="0 0 249 99" fill="none" xmlns="http://www.w3.org/2000/svg">
<path d="M124.625 93C157.762 93 184.625 72.1812 184.625 46.5C184.625 20.8188 157.762 0 124.625 0C91.4879 0 64.625 20.8188 64.625 46.5C64.625 72.1812 91.4879 93 124.625 93Z" fill="#3FB755"/>
<path opacity="0.1" d="M74.1308 51.885C74.1308 26.1525 100.871 5.29182 133.86 5.29182C144.102 5.23505 154.242 7.34258 163.625 11.4782C153.126 4.33845 139.391 0 124.359 0C91.3698 0 64.625 20.8607 64.625 46.5932C64.625 63.8714 76.6835 78.9531 94.5982 87C82.0558 78.4575 74.1308 65.8957 74.1308 51.885Z" fill="white"/>
<g opacity="0.5">
<g opacity="0.3">
<path d="M145.755 63.9525L150.942 48.6215C154.604 37.6603 150.642 25.603 141.182 18.919L141.224 18.8939C139.184 17.4633 136.946 16.3342 134.581 15.5419L134.51 15.5168L134.43 15.4916C132.134 14.7183 129.741 14.2698 127.32 14.1592C126.464 14.1152 125.606 14.1152 124.75 14.1592C123.264 14.2367 121.788 14.4399 120.337 14.7668C119.916 14.8589 119.495 14.9637 119.113 15.0768C118.73 15.19 118.301 15.3115 117.901 15.4413C117.102 15.7053 116.315 16.0028 115.545 16.3422C115.158 16.5098 114.775 16.6858 114.401 16.8743C113.269 17.4311 112.179 18.0696 111.14 18.7849C110.791 19.0238 110.451 19.271 110.114 19.5224C105.956 22.6719 102.843 26.9926 101.179 31.9246L93.0255 56.0796C91.7424 59.8678 91.3565 63.9003 91.8981 67.8617C91.9822 68.4693 92.0874 69.0726 92.2094 69.6718C92.3314 70.271 92.4829 70.8617 92.6301 71.4483C92.7437 71.838 92.8615 72.2277 92.9919 72.6131C93.1854 73.1872 93.4126 73.7612 93.6271 74.3226C93.7828 74.6955 93.9469 75.0684 94.1193 75.4372C94.4601 76.1704 94.8387 76.8869 95.2468 77.5866C95.6549 78.2863 96.0882 78.9693 96.5762 79.6313C96.9295 80.1257 97.304 80.6117 97.691 81.081C98.2127 81.7095 98.7595 82.317 99.3401 82.8953C101.853 85.4183 104.86 87.3994 108.175 88.7151L108.318 88.7738C108.496 88.4593 108.692 88.1557 108.907 87.8645C110.169 86.1425 112.365 84.9316 114.455 85.3841C114.607 85.4176 114.758 85.4637 114.91 85.5098C115.97 85.8827 117.013 86.5489 118.036 86.8757C118.788 87.2125 119.652 87.2018 120.396 86.8464C122.44 85.7612 121.683 82.338 123.437 80.838C123.519 80.7688 123.605 80.7044 123.694 80.6453C123.669 80.6148 123.647 80.5826 123.627 80.5489C124.981 79.7109 126.857 80.2682 128.418 80.8087C130.101 81.3995 132.297 81.7975 133.466 80.4274C134.257 79.4888 134.198 78.0601 134.951 77.0754C135.827 75.9441 137.476 75.8184 138.902 76.0196H138.973C141.708 77.1425 144.695 75.2779 144.484 72.3408C144.236 68.4441 145.473 64.7528 145.755 63.9525Z" fill="url(#paint0_linear)"/>
</g>
<path d="M109.382 86.574C110.611 84.8981 112.718 83.7249 114.738 84.1816C116.757 84.6383 118.671 86.5531 120.467 85.5936C122.924 84.2863 121.182 79.4805 125.171 79.1243C126.002 79.0696 126.834 79.2132 127.598 79.5433C129.281 80.2263 131.914 80.9972 133.21 79.4595C133.971 78.5545 133.917 77.176 134.645 76.2374C135.486 75.1481 137.089 75.0098 138.456 75.2193L138.523 75.2402C141.161 76.3254 144.047 74.5238 143.841 71.6913C143.576 67.9204 144.779 64.3673 145.04 63.5964L150.038 48.8017C154.463 35.5982 147.348 21.3143 134.114 16.8366C120.859 12.4347 106.523 19.5225 102.028 32.6997L94.149 55.9665C89.8977 68.6692 96.3188 82.4716 108.797 87.4539C108.975 87.1495 109.17 86.8557 109.382 86.574Z" fill="white"/>
<path opacity="0.2" d="M118.696 33.1019C120.208 33.1019 121.434 31.8807 121.434 30.3743C121.434 28.8678 120.208 27.6466 118.696 27.6466C117.183 27.6466 115.957 28.8678 115.957 30.3743C115.957 31.8807 117.183 33.1019 118.696 33.1019Z" fill="black"/>
<path opacity="0.2" d="M134.27 38.3185C135.782 38.3185 137.009 37.0973 137.009 35.5908C137.009 34.0844 135.782 32.8632 134.27 32.8632C132.757 32.8632 131.531 34.0844 131.531 35.5908C131.531 37.0973 132.757 38.3185 134.27 38.3185Z" fill="black"/>
</g>
<path opacity="0.1" d="M182.066 32C182.846 35.0148 183.239 38.1167 183.236 41.2308C183.236 66.9385 156.337 87.779 123.153 87.779C95.9939 87.7622 73.0473 73.807 65.625 54.6573C71.1382 75.9594 95.4149 92 124.538 92C157.722 92 184.625 71.1594 184.625 45.4517C184.616 40.8476 183.748 36.2856 182.066 32Z" fill="black"/>
<g opacity="0.8">
<path d="M124.624 98.6209C192.919 98.6209 248.282 84.1802 248.282 66.3667C248.282 48.5532 192.919 34.1125 124.624 34.1125C56.3302 34.1125 0.966797 48.5532 0.966797 66.3667C0.966797 84.1802 56.3302 98.6209 124.624 98.6209Z" fill="url(#paint1_linear)"/>
</g>
<path d="M124.625 36C58.3531 36 4.625 49.8767 4.625 67H244.625C244.625 49.8767 190.897 36 124.625 36Z" fill="white"/>
<path d="M124.625 98C190.897 98 244.625 84.1214 244.625 67H4.625C4.625 84.1214 58.3531 98 124.625 98Z" fill="white"/>
<path opacity="0.05" d="M124.625 98C190.897 98 244.625 84.1214 244.625 67H4.625C4.625 84.1214 58.3531 98 124.625 98Z" fill="black"/>
<rect opacity="0.05" x="67.625" y="59" width="114" height="16" rx="8" fill="black"/>
<path opacity="0.05" d="M41.625 59C49.357 59 55.625 57.6569 55.625 56C55.625 54.3431 49.357 53 41.625 53C33.893 53 27.625 54.3431 27.625 56C27.625 57.6569 33.893 59 41.625 59Z" fill="black"/>
<path opacity="0.05" d="M41.625 81C49.357 81 55.625 79.6569 55.625 78C55.625 76.3431 49.357 75 41.625 75C33.893 75 27.625 76.3431 27.625 78C27.625 79.6569 33.893 81 41.625 81Z" fill="black"/>
<path opacity="0.05" d="M203.625 59C211.357 59 217.625 57.6569 217.625 56C217.625 54.3431 211.357 53 203.625 53C195.893 53 189.625 54.3431 189.625 56C189.625 57.6569 195.893 59 203.625 59Z" fill="black"/>
<path opacity="0.05" d="M203.625 81C211.357 81 217.625 79.6569 217.625 78C217.625 76.3431 211.357 75 203.625 75C195.893 75 189.625 76.3431 189.625 78C189.625 79.6569 195.893 81 203.625 81Z" fill="black"/>
<path opacity="0.05" d="M124.625 46C132.357 46 138.625 44.6569 138.625 43C138.625 41.3431 132.357 40 124.625 40C116.893 40 110.625 41.3431 110.625 43C110.625 44.6569 116.893 46 124.625 46Z" fill="black"/>
<path opacity="0.05" d="M134.625 16C142.357 16 148.625 14.6569 148.625 13C148.625 11.3431 142.357 10 134.625 10C126.893 10 120.625 11.3431 120.625 13C120.625 14.6569 126.893 16 134.625 16Z" fill="black"/>
<path opacity="0.05" d="M107.625 28C115.357 28 121.625 26.6569 121.625 25C121.625 23.3431 115.357 22 107.625 22C99.893 22 93.625 23.3431 93.625 25C93.625 26.6569 99.893 28 107.625 28Z" fill="black"/>
<path opacity="0.05" d="M160.625 33C168.357 33 174.625 31.6569 174.625 30C174.625 28.3431 168.357 27 160.625 27C152.893 27 146.625 28.3431 146.625 30C146.625 31.6569 152.893 33 160.625 33Z" fill="black"/>
<path opacity="0.05" d="M124.625 90C132.357 90 138.625 88.6569 138.625 87C138.625 85.3431 132.357 84 124.625 84C116.893 84 110.625 85.3431 110.625 87C110.625 88.6569 116.893 90 124.625 90Z" fill="black"/>
<defs>
<linearGradient id="paint0_linear" x1="139.97" y1="106.372" x2="175.128" y2="37.7894" gradientUnits="userSpaceOnUse">
<stop stop-color="#808080" stop-opacity="0.25"/>
<stop offset="0.54" stop-color="#808080" stop-opacity="0.12"/>
<stop offset="1" stop-color="#808080" stop-opacity="0.1"/>
</linearGradient>
<linearGradient id="paint1_linear" x1="248.282" y1="98.6209" x2="248.282" y2="34.1125" gradientUnits="userSpaceOnUse">
<stop stop-color="#808080" stop-opacity="0.25"/>
<stop offset="0.54" stop-color="#808080" stop-opacity="0.12"/>
<stop offset="1" stop-color="#808080" stop-opacity="0.1"/>
</linearGradient>
</defs>
</svg>
